<?xml version="1.0" encoding="UTF-8" standalone="no"?>
<svg
   xmlns:dc="http://purl.org/dc/elements/1.1/"
   xmlns:cc="http://creativecommons.org/ns#"
   xmlns:rdf="http://www.w3.org/1999/02/22-rdf-syntax-ns#"
   xmlns:svg="http://www.w3.org/2000/svg"
   xmlns="http://www.w3.org/2000/svg"
   xmlns:sodipodi="http://sodipodi.sourceforge.net/DTD/sodipodi-0.dtd"
   xmlns:inkscape="http://www.inkscape.org/namespaces/inkscape"
   enable-background="new 0 0 289.8 334.5"
   viewBox="0 0 289.8 334.5"
   version="1.1"
   id="svg380"
   sodipodi:docname="app-download.svg"
   inkscape:version="0.92.1 r15371">
  <metadata
     id="metadata386">
    <rdf:RDF>
      <cc:Work
         rdf:about="">
        <dc:format>image/svg+xml</dc:format>
        <dc:type
           rdf:resource="http://purl.org/dc/dcmitype/StillImage" />
      </cc:Work>
    </rdf:RDF>
  </metadata>
  <defs
     id="defs384" />
  <sodipodi:namedview
     pagecolor="#ffffff"
     bordercolor="#666666"
     borderopacity="1"
     objecttolerance="10"
     gridtolerance="10"
     guidetolerance="10"
     inkscape:pageopacity="0"
     inkscape:pageshadow="2"
     inkscape:window-width="1303"
     inkscape:window-height="744"
     id="namedview382"
     showgrid="false"
     inkscape:zoom="1.799701"
     inkscape:cx="144.89999"
     inkscape:cy="167.25"
     inkscape:window-x="57"
     inkscape:window-y="24"
     inkscape:window-maximized="1"
     inkscape:current-layer="svg380" />
  <linearGradient
     id="a"
     gradientTransform="matrix(1 0 0 -1 0 -4883.3208)"
     gradientUnits="userSpaceOnUse"
     x1="146.4999"
     x2="164.0096"
     y1="-5096.3384"
     y2="-5096.3384">
    <stop
       offset="0"
       stop-color="#f65c51"
       id="stop265" />
    <stop
       offset=".1464"
       stop-color="#d9615e"
       id="stop267" />
    <stop
       offset=".4642"
       stop-color="#906f7f"
       id="stop269" />
    <stop
       offset=".9262"
       stop-color="#1c84b2"
       id="stop271" />
    <stop
       offset="1"
       stop-color="#0988bb"
       id="stop273" />
  </linearGradient>
  <path
     d="m39.4 181.1c-11 10.6-11.3 28-.7 39s28 11.3 39 .7 11.3-28 .7-39c-10.6-10.9-28-11.2-39-.7zm34.4 35.8c-8.8 8.4-22.7 8.2-31.2-.6-8.4-8.8-8.2-22.7.6-31.2s22.7-8.2 31.2.6 8.2 22.7-.6 31.2z"
     fill="#f2f2f2"
     id="path276" />
  <path
     d="m69 199-.1 5.5-11-.2-12.2-12.7 3.9-3.9 10.7 11.1z"
     fill="#f2f2f2"
     id="path278" />
  <path
     d="m256.1 104.2-31.1 5.3c-1.7.3-3.4-.9-3.7-2.6l-6.8-40c-.3-1.7.9-3.4 2.6-3.7l24.2-4.1 11.9 9 5.5 32.4c.3 1.8-.9 3.4-2.6 3.7z"
     fill="#ffbdbd"
     id="path280" />
  <path
     d="m241.2 59.1 11.9 9.1-10 1.7z"
     fill="#037ab1"
     id="path282" />
  <path
     d="m263.4 262.8h-37.2c.3-1.5.5-3.1.5-4.7 0-9.1-5.8-16.6-12.9-16.6h-102.8c-7.1 0-12.9 7.4-12.9 16.6 0 1.6.2 3.2.5 4.7h-51.4c-7.1 0-12.9 7.4-12.9 16.6s5.8 16.6 12.9 16.6h17.9c-.1.8-.2 1.7-.2 2.5 0 9.1 5.8 16.6 12.9 16.6h116.3c7.1 0 12.9-7.4 12.9-16.6 0-.9-.1-1.7-.2-2.5h56.5c7.1 0 12.9-7.4 12.9-16.6s-5.7-16.6-12.8-16.6z"
     fill="#ffbdbd"
     opacity=".5"
     id="path284" />
  <path
     d="m125.7 262-3.4 2.8 2 9.2 6.6 4.3h47.4l7.9-3.7 2.4-9.6-1.8-3z"
     fill="#fff"
     id="path286" />
  <path
     d="m122.3 163.7 4.8-9.8 34.3-.7 21.1 1.1 6.1 5.3v6.5l-63.5-1z"
     fill="#fff"
     id="path288" />
  <path
     d="m 122.3,166.1 h 66.3 v 96 h -66.3 z"
     id="path290"
     class="app-background"
     inkscape:connector-curvature="0"
     style="fill:#cc6669" />
  <path
     d="m178.3 278.3h-45.6c-5.7 0-10.4-4.7-10.4-10.4v-104.2c0-5.7 4.7-10.4 10.4-10.4h45.6c5.7 0 10.4 4.7 10.4 10.4v104.3c-.1 5.7-4.7 10.3-10.4 10.3z"
     fill="none"
     stroke="#3e3e3f"
     stroke-miterlimit="10"
     stroke-width="2.2153"
     id="path292" />
  <path
     d="m122.3 166.1h66.3"
     fill="none"
     stroke="#3e3e3f"
     stroke-miterlimit="10"
     stroke-width="2.2153"
     id="path294" />
  <path
     d="m122.3 262h66.3"
     fill="none"
     stroke="#3e3e3f"
     stroke-miterlimit="10"
     stroke-width="2.2153"
     id="path296" />
  <path
     d="m148.8 160.1h13"
     fill="none"
     stroke="#3e3e3f"
     stroke-linecap="round"
     stroke-miterlimit="10"
     stroke-width="2.2153"
     id="path298" />
  <g
     style="opacity:0.8;fill:none;stroke:#e6e6e6;stroke-width:6.3305;stroke-linecap:round;stroke-miterlimit:10"
     id="g308">
    <path
       d="m148.5 87.2v28.4"
       id="path300" />
    <path
       d="m134.3 101.4h28.3"
       id="path302" />
    <path
       d="m158.5 91.4-20.1 20.1"
       id="path304" />
    <path
       d="m138.4 91.4 20.1 20.1"
       id="path306" />
  </g>
  <g
     opacity=".8"
     id="g314">
    <path
       d="m226.1 202.6v34.7"
       fill="none"
       stroke="#e6e6e6"
       stroke-linecap="round"
       stroke-miterlimit="10"
       stroke-width="7.7445"
       id="path310" />
    <path
       d="m208.7 220h34.7"
       fill="none"
       stroke="#e6e6e6"
       stroke-linecap="round"
       stroke-miterlimit="10"
       stroke-width="7.7445"
       id="path312" />
  </g>
  <path
     d="m 148.1,24.1 v 0 h -4 l 1.4,-3.8 c 0.6,-1.5 -0.2,-3.2 -1.7,-3.8 -1.5,-0.6 -3.2,0.2 -3.8,1.7 l -2.1,5.8 h -10.5 l 1.4,-3.8 c 0.6,-1.5 -0.2,-3.2 -1.7,-3.8 -1.5,-0.6 -3.2,0.2 -3.8,1.7 l -2.2,5.9 h -6.2 c -1.6,0 -2.9,1.3 -2.9,3 0,1.6 1.3,2.9 2.9,2.9 v 0 h 4.1 l -3.6,9.9 h -6.2 c -1.6,0 -2.9,1.3 -2.9,3 0,1.6 1.3,2.9 2.9,2.9 v 0 h 4 l -1.4,3.8 c -0.6,1.5 0.2,3.2 1.7,3.8 0.3,0.1 0.7,0.2 1,0.2 1.2,0 2.3,-0.7 2.8,-1.9 l 2.1,-5.8 h 10.5 l -1.4,3.8 c -0.6,1.5 0.2,3.2 1.7,3.8 0.3,0.1 0.7,0.2 1,0.2 1.2,0 2.3,-0.7 2.8,-1.9 l 2.2,-5.9 h 6.2 c 1.6,0 2.9,-1.3 2.9,-3 0,-1.6 -1.3,-2.9 -2.9,-2.9 v 0 h -4.1 l 3.6,-9.9 h 6.2 c 1.6,0 2.9,-1.3 2.9,-3 0,-1.6 -1.3,-2.9 -2.9,-2.9 z M 131.9,39.9 H 121.4 L 125,30 h 10.5 z"
     id="path316"
     class="app-background"
     inkscape:connector-curvature="0"
     style="fill:#cc6669" />
  <path
     d="m 66.5,112 c -1.1,4.8 -5.9,7.8 -10.7,6.7 L 28,112.3 c -5.8,-1.3 -9.4,-7.1 -8,-12.8 1.3,-5.8 7.1,-9.4 12.8,-8 0.6,0.1 1.2,0.3 1.7,0.6 3.4,-3.7 8.6,-5.5 13.8,-4.3 6.5,1.5 10.9,7.2 11.1,13.6 0.1,0 0.3,0.1 0.4,0.1 4.8,0.9 7.8,5.7 6.7,10.5 z"
     id="path318"
     class="app-background"
     inkscape:connector-curvature="0"
     style="fill:#cc6669" />
  <path
     d="m44.4 123.4-4.3 1.6 1.9-8.4-2.5-.6-1.9 8.4-3.2-3.4-1.9 1.8 4.1 4.4c.5.6 1.2.9 2 .9.3 0 .7-.1 1-.2l5.6-2.1z"
     fill="#ffbdbd"
     id="path320" />
  <path
     d="m 260.4,97.9 -31.1,5.3 c -1.7,0.3 -3.4,-0.9 -3.7,-2.6 l -6.8,-40 c -0.3,-1.7 0.9,-3.4 2.6,-3.7 l 24.2,-4.1 11.9,9 5.5,32.4 c 0.3,1.8 -0.9,3.4 -2.6,3.7 z"
     id="path322"
     class="app-background"
     inkscape:connector-curvature="0"
     style="fill:#cc6669" />
  <path
     d="m245.5 52.9 11.9 9-10 1.7z"
     fill="#ffbdbd"
     id="path324" />
  <g
     fill="none"
     stroke-miterlimit="10"
     id="g342">
    <path
       d="m25.6 124.7c-28.2 29.7-9.9 115.4 81.5 92.1"
       stroke="#ff6861"
       stroke-dasharray="1.0595 4.2381"
       stroke-linecap="round"
       stroke-width="2.119"
       id="path326" />
    <path
       d="m117.9 62c-.1.2-.1.3-.2.5"
       stroke="#ff6861"
       stroke-linecap="round"
       stroke-width="2.119"
       id="path328" />
    <path
       d="m116.3 66.4c-9.2 26.8-6 55.2 6 72.4"
       stroke="#ff6861"
       stroke-dasharray="1.0288 4.115"
       stroke-linecap="round"
       stroke-width="2.119"
       id="path330" />
    <path
       d="m123.5 140.4c.1.1.2.3.3.4"
       stroke="#ff6861"
       stroke-linecap="round"
       stroke-width="2.119"
       id="path332" />
    <path
       d="m247 113.4c10.9 42.1-3.2 75.2-45.4 77.3"
       stroke="#ff6861"
       stroke-dasharray="1.0595 4.2381"
       stroke-linecap="round"
       stroke-width="2.119"
       id="path334" />
    <path
       d="m125.7 135.5-.2 6.9-7-.2"
       stroke="#ff6861"
       stroke-linecap="round"
       stroke-width="2.119"
       id="path336" />
    <path
       d="m103.1 212.8 6.2 3.1-3.2 6.2"
       stroke="#ff6861"
       stroke-linecap="round"
       stroke-width="2.119"
       id="path338" />
    <path
       d="m205.5 195.1-5.5-4.2 4.3-5.6"
       stroke="#ff6861"
       stroke-linecap="round"
       stroke-width="2.119"
       id="path340" />
  </g>
  <path
     d="m204.1 112.9c-6.5-6.8-17.3-7-24.1-.4s-7 17.3-.4 24.1c6.5 6.8 17.3 7 24.1.4 6.8-6.5 7-17.3.4-24.1zm-22 21.3c-5.2-5.4-5.1-14 .4-19.2 5.4-5.2 14-5.1 19.2.4 5.2 5.4 5.1 14-.4 19.2s-14 5-19.2-.4z"
     fill="#f2f2f2"
     id="path344" />
  <path
     d="m193.1 131.2-3.4-.1.1-6.8 7.9-7.5 2.3 2.4-6.8 6.6z"
     fill="#f2f2f2"
     id="path346" />
  <path
     d="m105.9 148.3c-3.6-7.3-12.4-10.2-19.7-6.6s-10.2 12.4-6.6 19.7 12.4 10.2 19.7 6.6c2.9-1.5 5.1-3.8 6.5-6.5l6.1.2z"
     fill="#f2f2f2"
     id="path348" />
</svg>
