<?xml version="1.0" encoding="UTF-8" standalone="no"?>
<svg
   xmlns:dc="http://purl.org/dc/elements/1.1/"
   xmlns:cc="http://creativecommons.org/ns#"
   xmlns:rdf="http://www.w3.org/1999/02/22-rdf-syntax-ns#"
   xmlns:svg="http://www.w3.org/2000/svg"
   xmlns="http://www.w3.org/2000/svg"
   xmlns:sodipodi="http://sodipodi.sourceforge.net/DTD/sodipodi-0.dtd"
   xmlns:inkscape="http://www.inkscape.org/namespaces/inkscape"
   enable-background="new 0 0 201.5 201.5"
   viewBox="0 0 201.5 201.5"
   xml:space="preserve"
   version="1.1"
   id="svg140"
   sodipodi:docname="FTS.svg"
   inkscape:version="0.92.1 r15371"><metadata
     id="metadata146"><rdf:RDF><cc:Work
         rdf:about=""><dc:format>image/svg+xml</dc:format><dc:type
           rdf:resource="http://purl.org/dc/dcmitype/StillImage" /></cc:Work></rdf:RDF></metadata><defs
     id="defs144"><filter
       style="color-interpolation-filters:sRGB"
       inkscape:label="Drop Shadow"
       id="filter6231"><feFlood
         flood-opacity="0.6"
         flood-color="rgb(153,153,153)"
         result="flood"
         id="feFlood6221" /><feComposite
         in="flood"
         in2="SourceGraphic"
         operator="in"
         result="composite1"
         id="feComposite6223" /><feGaussianBlur
         in="composite1"
         stdDeviation="0.9"
         result="blur"
         id="feGaussianBlur6225" /><feOffset
         dx="2"
         dy="2"
         result="offset"
         id="feOffset6227" /><feComposite
         in="offset"
         in2="SourceGraphic"
         operator="out"
         result="fbSourceGraphic"
         id="feComposite6229" /><feColorMatrix
         result="fbSourceGraphicAlpha"
         in="fbSourceGraphic"
         values="0 0 0 -1 0 0 0 0 -1 0 0 0 0 -1 0 0 0 0 1 0"
         id="feColorMatrix6233" /><feFlood
         id="feFlood6235"
         flood-opacity="0.6"
         flood-color="rgb(153,153,153)"
         result="flood"
         in="fbSourceGraphic" /><feComposite
         in2="fbSourceGraphic"
         id="feComposite6237"
         in="flood"
         operator="in"
         result="composite1" /><feGaussianBlur
         id="feGaussianBlur6239"
         in="composite1"
         stdDeviation="0.9"
         result="blur" /><feOffset
         id="feOffset6241"
         dx="2"
         dy="2"
         result="offset" /><feComposite
         in2="fbSourceGraphic"
         id="feComposite6243"
         in="offset"
         operator="out"
         result="composite2" /></filter><filter
       style="color-interpolation-filters:sRGB"
       inkscape:label="Drop Shadow"
       id="filter6279"><feFlood
         flood-opacity="0.6"
         flood-color="rgb(153,153,153)"
         result="flood"
         id="feFlood6269" /><feComposite
         in="flood"
         in2="SourceGraphic"
         operator="in"
         result="composite1"
         id="feComposite6271" /><feGaussianBlur
         in="composite1"
         stdDeviation="0.9"
         result="blur"
         id="feGaussianBlur6273" /><feOffset
         dx="2"
         dy="2"
         result="offset"
         id="feOffset6275" /><feComposite
         in="SourceGraphic"
         in2="offset"
         operator="over"
         result="composite2"
         id="feComposite6277" /></filter></defs><sodipodi:namedview
     pagecolor="#ffffff"
     bordercolor="#666666"
     borderopacity="1"
     objecttolerance="10"
     gridtolerance="10"
     guidetolerance="10"
     inkscape:pageopacity="0"
     inkscape:pageshadow="2"
     inkscape:window-width="1144"
     inkscape:window-height="662"
     id="namedview142"
     showgrid="false"
     inkscape:zoom="4.68"
     inkscape:cx="128.26889"
     inkscape:cy="134.93803"
     inkscape:window-x="103"
     inkscape:window-y="78"
     inkscape:window-maximized="0"
     inkscape:current-layer="svg140" /><circle
     cx="100.7"
     cy="100.9"
     fill="#f2f2f2"
     opacity=".5"
     r="73.3"
     id="circle2" /><path
     d="m41.7 154.3-2.7 2.2 1.5 7.1 5.3 3.5h37.2l6.2-3 1.9-7.5-1.5-2.3z"
     fill="#fff"
     id="path4" /><path
     d="m39 77 3.8-7.7 26.9-.6 20.6 1.1 2.6 4.4v4.6l-51.7-.7z"
     fill="#fff"
     id="path6" /><path
     d="m39 78.8h52.1v75.4h-52.1z"
     fill="#fff"
     id="path8" /><path
     d="m43.7 83.7h23.2v2.1h-23.2z"
     fill="#cc6669"
     id="path10" /><path
     d="m43.7 94.3h23.2v.8h-23.2z"
     fill="#b3b3b3"
     id="path12" /><path
     d="m43.7 98.7h28.7v.8h-28.7z"
     fill="#e6e6e6"
     id="path14" /><path
     d="m43.7 107.8h23.2v.8h-23.2z"
     fill="#b3b3b3"
     id="path16" /><path
     d="m43.7 112.2h28.7v.8h-28.7z"
     fill="#e6e6e6"
     id="path18" /><path
     d="m40.5 90.8h49.8"
     fill="none"
     stroke="#e6e6e6"
     stroke-miterlimit="10"
     stroke-width=".2345"
     id="path20" /><path
     d="m40.5 103.4h49.8"
     fill="none"
     stroke="#e6e6e6"
     stroke-miterlimit="10"
     stroke-width=".2345"
     id="path22" /><path
     d="m40.5 116.9h49.8"
     fill="none"
     stroke="#e6e6e6"
     stroke-miterlimit="10"
     stroke-width=".2345"
     id="path24" /><path
     d="m76.9 95.8h.8v4.1h-.8z"
     fill="#ffe3e3"
     id="path26" /><path
     d="m78.5 95.8h.8v4.1h-.8z"
     fill="#ffe3e3"
     id="path28" /><path
     d="m80.2 96.8h.8v3h-.8z"
     fill="#ffe3e3"
     id="path30" /><path
     d="m81.8 96h .8v3.9h-.8z"
     fill="#ffe3e3"
     id="path32" /><path
     d="m83.4 97.1h.8v2.8h-.8z"
     fill="#ffe3e3"
     id="path34" /><path
     d="m85.1 97.3h.8v2.5h-.8z"
     fill="#cc6669"
     id="path36" /><path
     d="m76.9 109.2h.8v4.1h-.8z"
     fill="#ffe3e3"
     id="path38" /><path
     d="m78.5 110.2h.8v3.1h-.8z"
     fill="#ffe3e3"
     id="path40" /><path
     d="m80.2 109.5h.8v3.9h-.8z"
     fill="#ffe3e3"
     id="path42" /><path
     d="m81.8 110.2h.8v3.1h-.8z"
     fill="#ffe3e3"
     id="path44" /><path
     d="m83.4 110.5h.8v2.8h-.8z"
     fill="#ffe3e3"
     id="path46" /><path
     d="m85.1 108.2h.8v5.2h-.8z"
     fill="#cc6669"
     id="path48" /><path
     d="m43.7 120.3h23.2v.8h-23.2z"
     fill="#b3b3b3"
     id="path50" /><path
     d="m43.7 124.7h28.7v.8h-28.7z"
     fill="#e6e6e6"
     id="path52" /><path
     d="m43.7 133.9h23.2v.8h-23.2z"
     fill="#b3b3b3"
     id="path54" /><path
     d="m43.7 138.3h28.7v.8h-28.7z"
     fill="#e6e6e6"
     id="path56" /><path
     d="m40.5 129.4h49.8"
     fill="none"
     stroke="#e6e6e6"
     stroke-miterlimit="10"
     stroke-width=".2345"
     id="path58" /><path
     d="m40.5 142.9h49.8"
     fill="none"
     stroke="#e6e6e6"
     stroke-miterlimit="10"
     stroke-width=".2345"
     id="path60" /><path
     d="m76.9 121.8h.8v4.1h-.8z"
     fill="#ffe3e3"
     id="path62" /><path
     d="m78.5 121.8h.8v4.1h-.8z"
     fill="#ffe3e3"
     id="path64" /><path
     d="m80.2 122.9h.8v3h-.8z"
     fill="#ffe3e3"
     id="path66" /><path
     d="m81.8 123.9h.8v2h-.8z"
     fill="#ffe3e3"
     id="path68" /><path
     d="m83.4 123.1h.8v2.8h-.8z"
     fill="#ffe3e3"
     id="path70" /><path
     d="m85.1 122.1h.8v3.8h-.8z"
     fill="#cc6669"
     id="path72" /><path
     d="m76.9 135.3h.8v4.1h-.8z"
     fill="#ffe3e3"
     id="path74" /><path
     d="m78.5 136.2h.8v3.1h-.8z"
     fill="#ffe3e3"
     id="path76" /><path
     d="m80.2 135.5h.8v3.9h-.8z"
     fill="#ffe3e3"
     id="path78" /><path
     d="m81.8 134.5h.8v4.9h-.8z"
     fill="#ffe3e3"
     id="path80" /><path
     d="m83.4 136.6h.8v2.8h-.8z"
     fill="#ffe3e3"
     id="path82" /><path
     d="m85.1 135.4h.8v4h-.8z"
     fill="#cc6669"
     id="path84" /><path
     d="m83 167.1h-35.8c-4.5 0-8.1-3.7-8.1-8.1v-82c0-4.5 3.7-8.1 8.1-8.1h35.8c4.5 0 8.1 3.7 8.1 8.1v81.9c0 4.5-3.7 8.2-8.1 8.2z"
     fill="none"
     stroke="#3e3e3f"
     stroke-miterlimit="10"
     stroke-width="2.16"
     id="path86" /><path
     d="m39 78.8h52.1"
     fill="none"
     stroke="#3e3e3f"
     stroke-miterlimit="10"
     stroke-width="2.16"
     id="path88" /><path
     d="m39 154.3h52.1"
     fill="none"
     stroke="#3e3e3f"
     stroke-miterlimit="10"
     stroke-width="2.16"
     id="path90" /><path
     d="m59.8 74.2h10.2"
     fill="none"
     stroke="#3e3e3f"
     stroke-linecap="round"
     stroke-miterlimit="10"
     stroke-width="2.16"
     id="path92" /><path
     d="m 119.3,28 v 0 C 96.9,28 78.8,46.1 78.8,68.5 V 109 h 40.5 c 22.4,0 40.5,-18.1 40.5,-40.5 v 0 C 159.8,46.1 141.7,28 119.3,28 Z"
     id="path96"
     inkscape:connector-curvature="0"
     style="fill:#ffffff;filter:url(#filter6231)" /><path
     style="fill:#ffffff"
     inkscape:connector-curvature="0"
     id="path6281"
     d="m 119.3,28 v 0 C 96.9,28 78.8,46.1 78.8,68.5 V 109 h 40.5 c 22.4,0 40.5,-18.1 40.5,-40.5 v 0 C 159.8,46.1 141.7,28 119.3,28 Z" /><path
     d="m121 99h56.4v53.1h-56.4z"
     fill="#fff"
     id="path114"
     style="filter:url(#filter6279)" /><path
     d="m170.8 108.9-4.2-4.3"
     fill="none"
     stroke="#6d6d6d"
     stroke-miterlimit="10"
     stroke-width=".5"
     id="path116" /><path
     d="m 170.8,104.6 -4.2,4.3"
     stroke-miterlimit="10"
     id="path118"
     inkscape:connector-curvature="0"
     style="fill:none;stroke:#6d6d6d;stroke-width:0.5;stroke-miterlimit:10" /><circle
     cx="137.3"
     cy="114.4"
     fill="#95d9f3"
     r="8.9"
     id="circle120" /><path
     d="m137.3 105.5v8.9h8.9c0-4.9-4-8.9-8.9-8.9z"
     fill="#027ab0"
     id="path122" /><path
     d="m155.3 113.5h15.9v11.8h-15.9z"
     fill="none"
     id="path124" /><text
     fill="#027ab0"
     font-family="'MyriadPro-Regular'"
     font-size="12"
     transform="translate(161.7651 122.0081)"
     id="text126">%</text>
<path
     d="m128.5 129.4h20.7v2.7h-20.7z"
     fill="#cc6669"
     id="path128" /><path
     d="m128.5 139.4h20.7v2.7h-20.7z"
     fill="#cc6669"
     id="path130" /><path
     d="m153.7 128.4h18.2v4.8h-18.2z"
     fill="none"
     id="path132" /><text
     fill="#027ab0"
     font-family="'MyriadPro-Regular'"
     font-size="6"
     transform="translate(168.7896 132.6692)"
     id="text134">$</text>
<path
     d="m153.7 138.3h18.2v4.8h-18.2z"
     fill="none"
     id="path136" /><text
     fill="#027ab0"
     font-family="'MyriadPro-Regular'"
     font-size="6"
     transform="translate(168.7896 142.6046)"
     id="text138">$</text>
<g
     id="g5230"
     transform="matrix(0.2961063,0,0,0.2961063,87.076339,48.762267)"><path
       style="fill:#00f2a5;stroke-width:1.33333337"
       d="M 116.91137,128.6984 C 79.373465,123.32627 43.233217,109.65738 21.560163,92.634851 7.5688621,81.645754 2.6666667,73.621602 2.6666667,61.709057 c 0,-5.96619 0.7295878,-8.828426 3.1606613,-12.399545 C 9.4779555,43.946931 20,37.31357 20,40.374703 20,41.407967 18.738572,43.394942 17.196828,44.790202 6.2770152,54.672496 9.0266415,69.235916 24.522487,83.590617 34.697197,93.016042 44.010164,98.676711 60.539133,105.4825 121.05987,130.40184 195.08296,124.23264 200.79339,93.793476 202.29811,85.772585 198.16231,77.859833 186.47288,66.395014 180.7128,60.745608 176,55.814439 176,55.436861 c 0,-3.100102 19.94673,10.172688 27.85636,18.535941 21.93959,23.197889 13.38072,43.482098 -22.31755,52.891738 -13.49924,3.55824 -46.11192,4.48365 -64.62744,1.83386 z"
       id="path5246"
       inkscape:connector-curvature="0" /><path
       style="fill:#304967;stroke-width:1.33333337"
       d="m 61.228684,102.3068 -5.895351,-2.973469 -0.357906,-30.999999 -0.357908,-31 -4.975426,-0.244246 c -2.736485,-0.134336 -6.475426,-0.129356 -8.30876,0.01107 -5.782134,0.442878 -9.547498,-1.001586 -9.074437,-3.481124 0.311049,-1.630354 3.490308,-3.07933 11.088592,-5.053725 L 54,25.797274 54.675587,18.317797 c 0.912652,-10.1040637 4.37946,-14.6171638 12.450369,-16.20793 3.766637,-0.7423994 8.693571,-0.7423994 12.530352,0 6.762148,1.3084441 7.991031,3.1346438 6.393236,9.500765 -0.791203,3.152402 -1.269325,3.342685 -6.572653,2.615784 -6.836135,-0.936997 -8.810224,0.580064 -8.810224,6.770539 v 4.463624 L 79,25.063622 87.333333,24.666666 87.675364,19.333333 C 88.485187,6.7056564 89.086089,5.3333332 93.805577,5.3333332 c 6.881253,0 8.709103,2.2654825 9.144043,11.3333328 l 0.38371,8 4.99604,0.413584 c 5.48065,0.453701 7.99832,3.378656 6.81224,7.914247 -0.7304,2.793022 -4.00761,4.287449 -9.47494,4.320629 -2.96168,0.01797 -3,0.247561 -3,17.971294 0,16.385085 0.22524,18.073637 2.57901,19.333333 1.41845,0.759134 10.11845,1.380245 19.33333,1.380245 14.97655,0 17.03728,-0.282956 19.42099,-2.666667 5.18337,-5.183378 3.04737,-8.188525 -8.16185,-11.482914 -15.66177,-4.602989 -22.32199,-11.577449 -20.68557,-21.661539 1.73114,-10.667735 10.36335,-16.855545 23.51409,-16.855545 11.25257,0 16.8709,3.109594 21.14946,11.705647 3.93743,7.91067 2.56082,10.294352 -5.94514,10.294352 -5.09243,0 -6.05442,-0.48714 -7.861,-3.980684 -2.57099,-4.971733 -7.53822,-6.405278 -12.01971,-3.468894 -5.9248,3.882081 -3.98081,6.024426 9.68404,10.672141 15.169,5.159312 18.99235,8.934545 18.99235,18.753374 0,9.648841 -5.74727,16.804506 -15.46164,19.250616 -3.14558,0.792062 -15.0728,1.440113 -26.50495,1.440113 -32.955385,0 -34.906627,-1.626779 -34.326515,-28.618533 0.205462,-9.559806 0.695895,-18.431466 1.089851,-19.714799 0.631785,-2.058074 -0.316711,-2.333334 -8.040232,-2.333334 h -8.756517 v 32.503406 c 0,37.318502 0.02235,37.241622 -9.437983,32.470062 z"
       id="path5240"
       inkscape:connector-curvature="0" /></g></svg>