<svg enable-background="new 0 0 201.5 201.5" viewBox="0 0 201.5 201.5" xml:space="preserve" xmlns="http://www.w3.org/2000/svg" xmlns:xlink="http://www.w3.org/1999/xlink"><filter id="a" color-interpolation-filters="sRGB"><feFlood flood-color="#999" flood-opacity=".6" result="flood"/><feComposite in="flood" in2="SourceGraphic" operator="in" result="composite1"/><feGaussianBlur in="composite1" result="blur" stdDeviation=".9"/><feOffset dx="2" dy="2" result="offset"/><feComposite in="offset" in2="SourceGraphic" operator="out" result="fbSourceGraphic"/><feColorMatrix in="fbSourceGraphic" result="fbSourceGraphicAlpha" values="0 0 0 -1 0 0 0 0 -1 0 0 0 0 -1 0 0 0 0 1 0"/><feFlood flood-color="#999" flood-opacity=".6" in="fbSourceGraphic" result="flood"/><feComposite in="flood" in2="fbSourceGraphic" operator="in" result="composite1"/><feGaussianBlur in="composite1" result="blur" stdDeviation=".9"/><feOffset dx="2" dy="2" result="offset"/><feComposite in="offset" in2="fbSourceGraphic" operator="out" result="composite2"/></filter><filter id="b" color-interpolation-filters="sRGB"><feFlood flood-color="#999" flood-opacity=".6" result="flood"/><feComposite in="flood" in2="SourceGraphic" operator="in" result="composite1"/><feGaussianBlur in="composite1" result="blur" stdDeviation=".9"/><feOffset dx="2" dy="2" result="offset"/><feComposite in="SourceGraphic" in2="offset" operator="over" result="composite2"/></filter><circle cx="100.7" cy="100.9" fill="#f2f2f2" opacity=".5" r="73.3"/><path d="m41.7 154.3-2.7 2.2 1.5 7.1 5.3 3.5h37.2l6.2-3 1.9-7.5-1.5-2.3z" fill="#fff"/><path d="m39 77 3.8-7.7 26.9-.6 20.6 1.1 2.6 4.4v4.6l-51.7-.7z" fill="#fff"/><path d="m39 78.8h52.1v75.4h-52.1z" fill="#fff"/><path d="m43.7 83.7h23.2v2.1h-23.2z" fill="#cc6669"/><path d="m43.7 94.3h23.2v.8h-23.2z" fill="#b3b3b3"/><path d="m43.7 98.7h28.7v.8h-28.7z" fill="#e6e6e6"/><path d="m43.7 107.8h23.2v.8h-23.2z" fill="#b3b3b3"/><path d="m43.7 112.2h28.7v.8h-28.7z" fill="#e6e6e6"/><path d="m40.5 90.8h49.8" fill="none" stroke="#e6e6e6" stroke-miterlimit="10" stroke-width=".2345"/><path d="m40.5 103.4h49.8" fill="none" stroke="#e6e6e6" stroke-miterlimit="10" stroke-width=".2345"/><path d="m40.5 116.9h49.8" fill="none" stroke="#e6e6e6" stroke-miterlimit="10" stroke-width=".2345"/><g fill="#ffe3e3"><path d="m76.9 95.8h.8v4.1h-.8z"/><path d="m78.5 95.8h.8v4.1h-.8z"/><path d="m80.2 96.8h.8v3h-.8z"/><path d="m81.8 96h .8v3.9h-.8z"/><path d="m83.4 97.1h.8v2.8h-.8z"/></g><path d="m85.1 97.3h.8v2.5h-.8z" fill="#cc6669"/><path d="m76.9 109.2h.8v4.1h-.8z" fill="#ffe3e3"/><path d="m78.5 110.2h.8v3.1h-.8z" fill="#ffe3e3"/><path d="m80.2 109.5h.8v3.9h-.8z" fill="#ffe3e3"/><path d="m81.8 110.2h.8v3.1h-.8z" fill="#ffe3e3"/><path d="m83.4 110.5h.8v2.8h-.8z" fill="#ffe3e3"/><path d="m85.1 108.2h.8v5.2h-.8z" fill="#cc6669"/><path d="m43.7 120.3h23.2v.8h-23.2z" fill="#b3b3b3"/><path d="m43.7 124.7h28.7v.8h-28.7z" fill="#e6e6e6"/><path d="m43.7 133.9h23.2v.8h-23.2z" fill="#b3b3b3"/><path d="m43.7 138.3h28.7v.8h-28.7z" fill="#e6e6e6"/><path d="m40.5 129.4h49.8" fill="none" stroke="#e6e6e6" stroke-miterlimit="10" stroke-width=".2345"/><path d="m40.5 142.9h49.8" fill="none" stroke="#e6e6e6" stroke-miterlimit="10" stroke-width=".2345"/><path d="m76.9 121.8h.8v4.1h-.8z" fill="#ffe3e3"/><path d="m78.5 121.8h.8v4.1h-.8z" fill="#ffe3e3"/><path d="m80.2 122.9h.8v3h-.8z" fill="#ffe3e3"/><path d="m81.8 123.9h.8v2h-.8z" fill="#ffe3e3"/><path d="m83.4 123.1h.8v2.8h-.8z" fill="#ffe3e3"/><path d="m85.1 122.1h.8v3.8h-.8z" fill="#cc6669"/><path d="m76.9 135.3h.8v4.1h-.8z" fill="#ffe3e3"/><path d="m78.5 136.2h.8v3.1h-.8z" fill="#ffe3e3"/><path d="m80.2 135.5h.8v3.9h-.8z" fill="#ffe3e3"/><path d="m81.8 134.5h.8v4.9h-.8z" fill="#ffe3e3"/><path d="m83.4 136.6h.8v2.8h-.8z" fill="#ffe3e3"/><path d="m85.1 135.4h.8v4h-.8z" fill="#cc6669"/><path d="m83 167.1h-35.8c-4.5 0-8.1-3.7-8.1-8.1v-82c0-4.5 3.7-8.1 8.1-8.1h35.8c4.5 0 8.1 3.7 8.1 8.1v81.9c0 4.5-3.7 8.2-8.1 8.2z" fill="none" stroke="#3e3e3f" stroke-miterlimit="10" stroke-width="2.16"/><path d="m39 78.8h52.1" fill="none" stroke="#3e3e3f" stroke-miterlimit="10" stroke-width="2.16"/><path d="m39 154.3h52.1" fill="none" stroke="#3e3e3f" stroke-miterlimit="10" stroke-width="2.16"/><path d="m59.8 74.2h10.2" fill="none" stroke="#3e3e3f" stroke-linecap="round" stroke-miterlimit="10" stroke-width="2.16"/><path d="m119.3 28v0c-22.4 0-40.5 18.1-40.5 40.5v40.5h40.5c22.4 0 40.5-18.1 40.5-40.5v0c0-22.4-18.1-40.5-40.5-40.5z" fill="#fff" filter="url(#a)"/><path d="m119.3 28v0c-22.4 0-40.5 18.1-40.5 40.5v40.5h40.5c22.4 0 40.5-18.1 40.5-40.5v0c0-22.4-18.1-40.5-40.5-40.5z" fill="#fff"/><path d="m121 99h56.4v53.1h-56.4z" fill="#fff" filter="url(#b)"/><path d="m170.8 108.9-4.2-4.3" fill="none" stroke="#6d6d6d" stroke-miterlimit="10" stroke-width=".5"/><path d="m170.8 104.6-4.2 4.3" fill="none" stroke="#6d6d6d" stroke-miterlimit="10" stroke-width=".5"/><circle cx="137.3" cy="114.4" fill="#95d9f3" r="8.9"/><path d="m137.3 105.5v8.9h8.9c0-4.9-4-8.9-8.9-8.9z" fill="#027ab0"/><path d="m155.3 113.5h15.9v11.8h-15.9z" fill="none"/><text fill="#027ab0" font-family="'MyriadPro-Regular'" font-size="12" transform="translate(161.7651 122.0081)">%</text><path d="m128.5 129.4h20.7v2.7h-20.7z" fill="#cc6669"/><path d="m128.5 139.4h20.7v2.7h-20.7z" fill="#cc6669"/><path d="m153.7 128.4h18.2v4.8h-18.2z" fill="none"/><text fill="#027ab0" font-family="'MyriadPro-Regular'" font-size="6" transform="translate(168.7896 132.6692)">$</text><path d="m153.7 138.3h18.2v4.8h-18.2z" fill="none"/><text fill="#027ab0" font-family="'MyriadPro-Regular'" font-size="6" transform="translate(168.7896 142.6046)">$</text><g transform="matrix(.2961063 0 0 .2961063 87.076339 48.762267)"><path d="m116.91137 128.6984c-37.537905-5.37213-73.678153-19.04102-95.351207-36.063549-13.9913009-10.989097-18.8934963-19.013249-18.8934963-30.925794 0-5.96619.7295878-8.828426 3.1606613-12.399545 3.6506275-5.362581 14.172672-11.995942 14.172672-8.934809 0 1.033264-1.261428 3.020239-2.803172 4.415499-10.9198128 9.882294-8.1701865 24.445714 7.325659 38.800415 10.17471 9.425425 19.487677 15.086094 36.016646 21.891883 60.520737 24.91934 134.543827 18.75014 140.254257-11.689024 1.50472-8.020891-2.63108-15.933643-14.32051-27.398462-5.76008-5.649406-10.47288-10.580575-10.47288-10.958153 0-3.100102 19.94673 10.172688 27.85636 18.535941 21.93959 23.197889 13.38072 43.482098-22.31755 52.891738-13.49924 3.55824-46.11192 4.48365-64.62744 1.83386z" fill="#00f2a5" stroke-width="1.33333337"/><path d="m61.228684 102.3068-5.895351-2.973469-.357906-30.999999-.357908-31-4.975426-.244246c-2.736485-.134336-6.475426-.129356-8.30876.01107-5.782134.442878-9.547498-1.001586-9.074437-3.481124.311049-1.630354 3.490308-3.07933 11.088592-5.053725l10.652512-2.768033.675587-7.479477c.912652-10.1040637 4.37946-14.6171638 12.450369-16.20793 3.766637-.7423994 8.693571-.7423994 12.530352 0 6.762148 1.3084441 7.991031 3.1346438 6.393236 9.500765-.791203 3.152402-1.269325 3.342685-6.572653 2.615784-6.836135-.936997-8.810224.580064-8.810224 6.770539v4.463624l8.333333-.396957 8.333333-.396956.342031-5.333333c.809823-12.6276766 1.410725-13.9999998 6.130213-13.9999998 6.881253 0 8.709103 2.2654825 9.144043 11.3333328l.38371 8 4.99604.413584c5.48065.453701 7.99832 3.378656 6.81224 7.914247-.7304 2.793022-4.00761 4.287449-9.47494 4.320629-2.96168.01797-3 .247561-3 17.971294 0 16.385085.22524 18.073637 2.57901 19.333333 1.41845.759134 10.11845 1.380245 19.33333 1.380245 14.97655 0 17.03728-.282956 19.42099-2.666667 5.18337-5.183378 3.04737-8.188525-8.16185-11.482914-15.66177-4.602989-22.32199-11.577449-20.68557-21.661539 1.73114-10.667735 10.36335-16.855545 23.51409-16.855545 11.25257 0 16.8709 3.109594 21.14946 11.705647 3.93743 7.91067 2.56082 10.294352-5.94514 10.294352-5.09243 0-6.05442-.48714-7.861-3.980684-2.57099-4.971733-7.53822-6.405278-12.01971-3.468894-5.9248 3.882081-3.98081 6.024426 9.68404 10.672141 15.169 5.159312 18.99235 8.934545 18.99235 18.753374 0 9.648841-5.74727 16.804506-15.46164 19.250616-3.14558.792062-15.0728 1.440113-26.50495 1.440113-32.955385 0-34.906627-1.626779-34.326515-28.618533.205462-9.559806.695895-18.431466 1.089851-19.714799.631785-2.058074-.316711-2.333334-8.040232-2.333334h-8.756517v32.503406c0 37.318502.02235 37.241622-9.437983 32.470062z" fill="#304967" stroke-width="1.33333337"/></g></svg>