<?xml version="1.0" encoding="UTF-8" standalone="no"?>
<svg
   xmlns:dc="http://purl.org/dc/elements/1.1/"
   xmlns:cc="http://creativecommons.org/ns#"
   xmlns:rdf="http://www.w3.org/1999/02/22-rdf-syntax-ns#"
   xmlns:svg="http://www.w3.org/2000/svg"
   xmlns="http://www.w3.org/2000/svg"
   xmlns:sodipodi="http://sodipodi.sourceforge.net/DTD/sodipodi-0.dtd"
   xmlns:inkscape="http://www.inkscape.org/namespaces/inkscape"
   enable-background="new 0 0 201.5 201.5"
   viewBox="0 0 201.5 201.5"
   version="1.1"
   id="svg2197"
   sodipodi:docname="Jobs-Trainings.svg"
   inkscape:version="0.92.1 r15371">
  <metadata
     id="metadata2203">
    <rdf:RDF>
      <cc:Work
         rdf:about="">
        <dc:format>image/svg+xml</dc:format>
        <dc:type
           rdf:resource="http://purl.org/dc/dcmitype/StillImage" />
      </cc:Work>
    </rdf:RDF>
  </metadata>
  <defs
     id="defs2201">
    <linearGradient
       id="k"
       gradientTransform="matrix(1,0,0,-1,-1.891166,-2675.713)"
       gradientUnits="userSpaceOnUse"
       x1="96.071602"
       x2="141.8721"
       y1="-2749.8801"
       y2="-2749.8801">
      <stop
         offset="0"
         stop-color="#f65c51"
         id="stop2297" />
      <stop
         offset=".1464"
         stop-color="#d9615e"
         id="stop2299" />
      <stop
         offset=".4642"
         stop-color="#906f7f"
         id="stop2301" />
      <stop
         offset=".9262"
         stop-color="#1c84b2"
         id="stop2303" />
      <stop
         offset="1"
         stop-color="#0988bb"
         id="stop2305" />
    </linearGradient>
    <filter
       style="color-interpolation-filters:sRGB"
       inkscape:label="Drop Shadow"
       id="filter5953">
      <feFlood
         flood-opacity="0.6"
         flood-color="rgb(153,153,153)"
         result="flood"
         id="feFlood5943" />
      <feComposite
         in="flood"
         in2="SourceGraphic"
         operator="in"
         result="composite1"
         id="feComposite5945" />
      <feGaussianBlur
         in="composite1"
         stdDeviation="0.9"
         result="blur"
         id="feGaussianBlur5947" />
      <feOffset
         dx="2"
         dy="2"
         result="offset"
         id="feOffset5949" />
      <feComposite
         in="SourceGraphic"
         in2="offset"
         operator="over"
         result="composite2"
         id="feComposite5951" />
    </filter>
  </defs>
  <sodipodi:namedview
     pagecolor="#ffffff"
     bordercolor="#666666"
     borderopacity="1"
     objecttolerance="10"
     gridtolerance="10"
     guidetolerance="10"
     inkscape:pageopacity="0"
     inkscape:pageshadow="2"
     inkscape:window-width="640"
     inkscape:window-height="480"
     id="namedview2199"
     showgrid="false"
     inkscape:zoom="1.1712159"
     inkscape:cx="100.75"
     inkscape:cy="100.75"
     inkscape:window-x="282"
     inkscape:window-y="152"
     inkscape:window-maximized="0"
     inkscape:current-layer="svg2197" />
  <clipPath
     id="clipPath1970">
    <path
       d="m82.1 791.1c.3-1.2.6-2.5 1-3.7h1.1v0 0 .1c-.5 1.8-1.1 3.6-1.6 5.3v.1h-.9c-.4-1.3-.7-2.5-1.1-3.8v0c-.4 1.3-.7 2.5-1.1 3.8h-.9c-.6-1.8-1.1-3.7-1.7-5.5h.6.6c.2.6.3 1.3.5 1.9s.3 1.2.5 1.9c.4-1.2.8-2.5 1.1-3.7h.8c.3 1.1.7 2.3 1.1 3.6z"
       id="path1968" />
  </clipPath>
  <clipPath
     id="clipPath1974">
    <path
       d="m73.9 792.9h-1.2v-5.5h1.2v.5c.1 0 .1-.1.1-.1.1-.1.2-.2.3-.3.6-.5 1.6-.3 2.1.1-.2.3-.5.6-.7.9 0 0-.1 0-.1-.1-.4-.3-.9-.2-1.2 0s-.4.5-.4.9v.3 3c-.1.1-.1.2-.1.3z"
       id="path1972" />
  </clipPath>
  <clipPath
     id="clipPath1978">
    <path
       d="m72.4 795.4c-.1 0-.1-.1 0 0-.1-.1-.2-.1-.2-.1h0s0 0-.1 0c-.8-.4-1.1-1.2-.7-2 .1-.1.2-.2.2-.3v0l0 0c .1.1.2.1.3.2.1.3.2.7.2 1 .1 0 .1.1.1.1 0 .2 0 .4.1.5s.1.3.1.6c.1-.1 0-.1 0 0z"
       id="path1976" />
  </clipPath>
  <clipPath
     id="clipPath1982">
    <path
       d="m72.4 795.4v0c0-.1.1-.1 0 0 0-.3.1-.5 0-.7s0-.3-.1-.5c0 0-.1-.1-.1-.1 0-.3-.1-.7-.2-1-.1-.1-.2-.1-.3-.2.2-.3.4-.4.6-.6 0 0 .1-.1.2-.1v.1.4c0 .1 0 .3-.1.4-.2.4-.1.8.2 1.1l.3.3c0 .1 0 .1.1.2v0 .3c.1.1.1.2.1.3s-.1.2-.1.3c0 0-.1 0-.1.1h-.1c-.1-.2-.3-.2-.4-.3z"
       id="path1980" />
  </clipPath>
  <clipPath
     id="clipPath1986">
    <path
       d="m84.4 793v0c-.1 0-.1.1-.2.1-.1-.2-.1-.4-.2-.5v0c .1-.2.2-.4.3-.5.2-.4.1-.8-.2-1.1-.1-.1-.2-.2-.3-.3 0 0-.1-.1-.1-.1h.1c.4.1.7.3 1 .7s.3.8.1 1.3c-.1-.1-.3.1-.5.4 0-.1 0-.1 0 0z"
       id="path1984" />
  </clipPath>
  <clipPath
     id="clipPath1990">
    <path
       d="m77.1 795.1h.6c.1 0 .2 0 .3.1v.1c.1.1.2.2.1.4 0 0-.1.1-.1.1-.1 0-.2 0-.3.1-.2 0-.5.1-.8.1 0-.1 0-.2 0-.3s0-.2-.1-.3v-.1h.2c-.1-.1-.1-.1.1-.2-.1.1-.1.1 0 0z"
       id="path1988" />
  </clipPath>
  <clipPath
     id="clipPath1994">
    <path
       d="m73 795.6s.1-.1 0 0c .1-.2.2-.3.1-.3 0-.1-.1-.2-.1-.3v-.3 0c0-.1 0-.1-.1-.2.1 0 .1.1.2.1.2.1.3.2.5.2v.2c.1.2.2.3.2.5v0 .3c-.2 0-.5-.1-.8-.2z"
       id="path1992" />
  </clipPath>
  <clipPath
     id="clipPath1998">
    <path
       d="m78 795.7v0c .1-.2.1-.4-.1-.5v-.1c-.1 0-.2 0-.3-.1.1 0 .2-.1.4-.1h.5c.1.1.1 0 .1 0h .1c.1 0 .1.1.1 0h .1c0 .1.1 0 .1 0h .1v0s-.1 0-.2.1c0 .1.1.3.1.4 0 0-.1 0-.1.1-.2.1-.5.1-.7.2 0 0-.1 0-.2 0z"
       id="path1996" />
  </clipPath>
  <clipPath
     id="clipPath2002">
    <path
       d="m76.1 795.9c-.3 0-.6 0-.9 0 0 0-.1-.1-.1-.1v-.1c0-.2-.1-.4 0-.6h.2.1.4c0 .1.1.1.1.1 0 .2 0 .3.1.4 0 0 .1 0 .1.1z"
       id="path2000" />
  </clipPath>
  <clipPath
     id="clipPath2006">
    <path
       d="m76.1 795.9v-.1s-.1 0-.1-.1 0-.3-.1-.4c0 0-.1-.1-.1-.1h.9v.1c0 .1.1.2.1.3v.3c-.1 0-.2 0-.3 0v0 0c-.1 0-.2 0-.4 0z"
       id="path2004" />
  </clipPath>
  <clipPath
     id="clipPath2010">
    <path
       d="m73.9 795.8c0-.1 0-.2 0-.3v0c-.1-.2-.1-.3-.2-.5v-.2c.2.1.4.1.6.2v0h .1s.1.1.1.1c0 .2 0 .4.1.6h.1v0c-.1 0-.2 0-.3 0-.2.1-.4.1-.5.1z"
       id="path2008" />
  </clipPath>
  <clipPath
     id="clipPath2014">
    <path
       d="m74.3 795.8h.3v0h-.1c-.1-.2-.1-.4-.1-.6 0 0 0 0-.1-.1.1 0 .3 0 .5.1.1.1.1.1.2 0h .1c-.1.2 0 .4 0 .6v.1s.1.1.1.1c-.1 0-.2 0-.3 0h-.1c-.2-.1-.3-.2-.5-.2z"
       id="path2012" />
  </clipPath>
  <clipPath
     id="clipPath2018">
    <path
       d="m79 795.5c0-.1.1-.1.1-.1 0-.1-.1-.3-.1-.4.1 0 .1 0 .2-.1v0h-.1c-.1 0-.1 0-.1 0 .2 0 .3-.1.5-.1h.3.2v.3c0 .1.2.1.2.3-.3.1-.6.1-.8.2-.3-.1-.3-.1-.4-.1z"
       id="path2016" />
  </clipPath>
  <clipPath
     id="clipPath2022">
    <path
       d="m83.5 793.7v0c-.3.2-.5.4-.7.5-.1-.1 0-.2-.1-.3 0-.1 0-.2-.1-.3 0 0 .1-.1.1-.1.2-.1.4-.2.5-.3 0 0 .1 0 .1-.1 0 .1 0 .1.1.2s.1.2.1.4z"
       id="path2020" />
  </clipPath>
  <clipPath
     id="clipPath2026">
    <path
       d="m80 795.3c0-.1-.1-.2-.2-.3v-.3c-.1 0-.1 0-.2 0 .1 0 .2-.1.2-.1.2 0 .4-.1.6-.1.1 0 .1.1.2.1.1.1.1.2.2.2 0 0 0 0-.1.1 0 0 0 .1.1.1-.3.1-.5.2-.8.3z"
       id="path2024" />
  </clipPath>
  <clipPath
     id="clipPath2030">
    <path
       d="m83.5 793.7v-.4c0-.1-.1-.1-.1-.2.1 0 .1-.1.2-.1v0c .1-.1.3-.3.4-.4.1.2.1.4.2.5h.1c-.1.1-.2.3-.4.4-.1 0-.2.1-.2.2v0 0c-.1-.1-.1 0-.2 0 .1 0 .1 0 0 0z"
       id="path2028" />
  </clipPath>
  <clipPath
     id="clipPath2034">
    <path
       d="m80.8 795v0c-.1-.1 0-.1 0-.1-.1-.1-.1-.2-.2-.2 0 0-.1-.1-.2-.1.3-.1.6-.2.8-.3.1.1.2.2.2.3v.2c-.1.1-.3.2-.6.2z"
       id="path2032" />
  </clipPath>
  <clipPath
     id="clipPath2038">
    <path
       d="m82.7 793.6c0 .1 0 .2.1.3 0 .1 0 .2.1.3-.2.1-.4.2-.6.3h-.1v-.3 0c0-.1 0-.2-.1-.3z"
       id="path2036" />
  </clipPath>
  <clipPath
     id="clipPath2042">
    <path
       d="m82 793.9c0 .1 0 .2.1.3v0 .3h.1c-.1 0-.2.1-.3.1-.1.1-.3.1-.4.2-.1-.1 0-.1 0-.2s0-.2-.2-.3c.2-.2.5-.3.7-.4z"
       id="path2040" />
  </clipPath>
  <clipPath
     id="clipPath2046">
    <path
       d="m75.1 795.1c-.1 0-.2.1-.3 0z"
       id="path2044" />
  </clipPath>
  <clipPath
     id="clipPath2050">
    <path
       d="m77.1 795.1s-.1.1-.1.1c-.1 0-.1 0-.1-.1z"
       id="path2048" />
  </clipPath>
  <clipPath
     id="clipPath2054">
    <path
       d="m78.9 794.9c0 .2-.1.1-.2.1 0-.1.1-.1.2-.1z"
       id="path2052" />
  </clipPath>
  <clipPath
     id="clipPath2058">
    <path
       d="m72.2 795.3c.1 0 .1.1.2.1-.1-.1-.2-.1-.2-.1z"
       id="path2056" />
  </clipPath>
  <clipPath
     id="clipPath2062">
    <path
       d="m78.6 794.9c0 .1 0 .2-.1 0 0 .1.1.1.1 0z"
       id="path2060" />
  </clipPath>
  <clipPath
     id="clipPath2066">
    <path
       d="m84.4 793c0-.1 0-.1.1-.1 0 0-.1.1-.1.1z"
       id="path2064" />
  </clipPath>
  <clipPath
     id="clipPath2070">
    <path
       d="m74.8 795.9h.2c-.1 0-.1 0-.2 0z"
       id="path2068" />
  </clipPath>
  <clipPath
     id="clipPath2074">
    <path
       d="m83.6 793.7s.1-.1.1-.1c0 .1-.1.1-.1.1z"
       id="path2072" />
  </clipPath>
  <clipPath
     id="clipPath2078">
    <path
       d="m72.9 795.6s.1 0 .1.1c0-.1 0-.1-.1-.1z"
       id="path2076" />
  </clipPath>
  <clipPath
     id="clipPath2082">
    <path
       d="m75.5 795.1c0 .1-.1.1-.1 0z"
       id="path2080" />
  </clipPath>
  <clipPath
     id="clipPath2086">
    <path
       d="m83.7 792.9 0 0c-.1 0 0 0 0 0z"
       id="path2084" />
  </clipPath>
  <clipPath
     id="clipPath2090">
    <path
       d="m84.1 792.4c0 .1 0 .1 0 0 0 .1 0 .1 0 0z"
       id="path2088" />
  </clipPath>
  <clipPath
     id="clipPath2092" />
  <clipPath
     id="clipPath2096">
    <path
       d="m76.6 795.9v0c .1 0 .1 0 0 0z"
       id="path2094" />
  </clipPath>
  <clipPath
     id="clipPath2100">
    <path
       d="m72.1 795.2s.1.1 0 0c .1.1 0 0 0 0z"
       id="path2098" />
  </clipPath>
  <clipPath
     id="clipPath2104">
    <path
       d="m74.3 795h0c-.1 0 0 0 0 0z"
       id="path2102" />
  </clipPath>
  <clipPath
     id="clipPath2106" />
  <clipPath
     id="clipPath2108" />
  <circle
     cx="100.7"
     cy="100.7"
     fill="#f2f2f2"
     opacity=".5"
     r="73.3"
     id="circle2121" />
  <path
     d="m40.8 153.5-2.7 2.2 1.5 7.2 5.3 3.4h37.2l6.2-3 1.9-7.5-1.5-2.3z"
     fill="#fff"
     id="path2123" />
  <path
     d="m38.1 76.2 3.8-7.7 26.9-.5 20.6 1 2.6 4.4v4.7l-51.7-.8z"
     fill="#fff"
     id="path2125" />
  <path
     d="m 38.1,78.1 h 52.1 v 75.4 H 38.1 Z"
     id="path2127"
     class="app-background"
     inkscape:connector-curvature="0"
     style="fill:#cc6669" />
  <g
     fill="#fff"
     id="g2143">
    <path
       d="m59.3 150.9h-14.3c-1.7 0-3.1-1.4-3.1-3.1v-21.2c0-1.7 1.4-3.1 3.1-3.1h14.3c1.7 0 3.1 1.4 3.1 3.1v21.2c0 1.7-1.4 3.1-3.1 3.1z"
       id="path2129" />
    <path
       d="m81.5 150.9h-14.4c-1.7 0-3.1-1.4-3.1-3.1v-21.2c0-1.7 1.4-3.1 3.1-3.1h14.3c1.7 0 3.1 1.4 3.1 3.1v21.2c.1 1.7-1.3 3.1-3 3.1z"
       id="path2131" />
    <path
       d="m89.4 123.4h-.4c-1.7 0-3.1 1.4-3.1 3.1v21.2c0 1.7 1.4 3.1 3.1 3.1h.4z"
       id="path2133" />
    <path
       d="m42.8 82.9h23.2v2.1h-23.2z"
       id="path2135" />
    <path
       d="m42.8 93.5h23.2v.8h-23.2z"
       id="path2137" />
    <path
       d="m42.8 97.9h28.7v.8h-28.7z"
       id="path2139" />
    <path
       d="m42.8 107h23.2v.8h-23.2z"
       id="path2141" />
  </g>
  <path
     d="m44.9 135.1h15.4v.8h-15.4z"
     fill="#c1c1c1"
     id="path2145" />
  <path
     d="m44.9 138.9h15.4v.8h-15.4z"
     fill="#c1c1c1"
     id="path2147" />
  <path
     d="m44.9 142.8h11v .8h-11z"
     fill="#c1c1c1"
     id="path2149" />
  <path
     d="m66.6 135.1h15.4v.8h-15.4z"
     fill="#c1c1c1"
     id="path2151" />
  <path
     d="m66.6 138.9h15.4v.8h-15.4z"
     fill="#c1c1c1"
     id="path2153" />
  <path
     d="m66.6 142.8h11v .8h-11z"
     fill="#c1c1c1"
     id="path2155" />
  <path
     d="m42.8 111.5h28.7v.8h-28.7z"
     fill="#fff"
     id="path2157" />
  <path
     d="m39.6 90h49.8"
     fill="none"
     stroke="#fff"
     stroke-miterlimit="10"
     stroke-width=".2345"
     id="path2159" />
  <path
     d="m39.6 102.6h49.8"
     fill="none"
     stroke="#fff"
     stroke-miterlimit="10"
     stroke-width=".2345"
     id="path2161" />
  <path
     d="m39.6 116.1h49.8"
     fill="none"
     stroke="#fff"
     stroke-miterlimit="10"
     stroke-width=".2345"
     id="path2163" />
  <path
     d="m44.9 127.5h4.4v4.4h-4.4z"
     fill="#c1c1c1"
     id="path2165" />
  <path
     d="m66.6 127.5h4.4v4.4h-4.4z"
     fill="#c1c1c1"
     id="path2167" />
  <path
     d="m77.8 105.2h8.3v8.3h-8.3z"
     fill="#e6e6e6"
     id="path2169" />
  <path
     d="m77.8 91.8h8.3v8.3h-8.3z"
     fill="#e6e6e6"
     id="path2171" />
  <path
     d="m82.1 166.3h-35.9c-4.5 0-8.1-3.7-8.1-8.1v-82c0-4.5 3.7-8.1 8.1-8.1h35.8c4.5 0 8.1 3.7 8.1 8.1v81.9c.1 4.5-3.6 8.2-8 8.2z"
     fill="none"
     stroke="#3e3e3f"
     stroke-miterlimit="10"
     stroke-width="2.16"
     id="path2173" />
  <path
     d="m38.1 78.1h52.1"
     fill="none"
     stroke="#3e3e3f"
     stroke-miterlimit="10"
     stroke-width="2.16"
     id="path2175" />
  <path
     d="m38.1 153.5h52.1"
     fill="none"
     stroke="#3e3e3f"
     stroke-miterlimit="10"
     stroke-width="2.16"
     id="path2177" />
  <path
     d="m58.9 73.4h10.2"
     fill="none"
     stroke="#3e3e3f"
     stroke-linecap="round"
     stroke-miterlimit="10"
     stroke-width="2.16"
     id="path2179" />
  <path
     d="m118.4 27.2 0 0c-22.4 0-40.5 18.1-40.5 40.5v40.5h40.5c22.4 0 40.5-18.1 40.5-40.5v0c0-22.4-18.1-40.5-40.5-40.5z"
     fill="#fff"
     id="path2183"
     style="filter:url(#filter5953)" />
  <path
     d="m139.5 129.2-10.8 10.8"
     fill="none"
     stroke="#ffe3e3"
     stroke-miterlimit="10"
     stroke-width="2.244"
     id="path2185" />
  <path
     d="m140.2 140v-9.2c0-1.2-1-2.2-2.2-2.2h-9.2"
     fill="none"
     stroke="#ffe3e3"
     stroke-miterlimit="10"
     stroke-width="2.244"
     id="path2187" />
  <path
     d="m123.3 130.9h-2.2c-1.2 0-2.2 1-2.2 2.2v14c0 1.2 1 2.2 2.2 2.2h14.5c1.2 0 2.2-1 2.2-2.2v-1.6"
     fill="none"
     stroke="#ffe3e3"
     stroke-miterlimit="10"
     stroke-width="2.244"
     id="path2189" />
  <path
     d="m101.8 62.3c0-3.2-.4-3.9-.4-4.6 0-.8 2.8-1 3.6-1 1 0 1.1 1.3 1.3 2.1.7-1.2 1.6-2.5 3.5-2.5 1.6 0 1.8 1.1 1.8 1.7s-.4 2.7-1 2.7c-.5 0-.9-.3-1.5-.3-1.3 0-2.2 1-2.6 1.6v10.4c0 .7-.6 1-1.9 1h-.9c-1.4 0-1.9-.4-1.9-1z"
     fill="#404040"
     id="path2191" />
  <path
     d="m113.1 57.8c-.1-.2-.1-.4-.1-.5 0-.9 2.7-.8 2.7-.8.9 0 1.7.2 1.9.6l2.6 10 2.4-10c .1-.5.7-.7 1.8-.7h.8c.9 0 1.7.2 1.8.7l2.4 10 2.6-10c .1-.5.7-.7 1.8-.7h.1c1.4 0 2 .3 2 .8 0 .1 0 .3-.1.5l-3.8 15c-.1.5-.9.7-1.8.7h-1.6c-1 0-1.6-.2-1.8-.7l-2.4-9.1-2.2 9.1c-.1.5-.9.7-1.8.7h-1.4c-1.1 0-1.6-.2-1.8-.7z"
     fill="#404040"
     id="path2193" />
  <path
     inkscape:connector-curvature="0"
     style="fill:url(#k)"
     d="m 139.90884,69.30378 c -0.3,-2.1 -2.9,-3.7 -4.5,-3.9 0.6,0.4 1.2,0.8 1.7,1.3 0.9,0.9 1.3,1.9 1,3.2 -0.3,1.2 -1,2.1 -1.9,3 -2,1.9 -4.5,3.2 -7.1,4.2 -4.6,1.9 -9.5,2.9 -14.4,3.4 -3.30001,0.3 -6.50001,0.3 -9.80001,-0.3 -1.8,-0.3 -3.6,-0.8 -5.199995,-1.9 -1.6,-1.1 -2.1,-2.5 -1.6,-4.1 l -0.7,-2.4 v 0 c -0.700001,0.5 -2.000001,1.6 -2.800001,3.2 -1,1.9 -0.6,3.7 1.1,5.1 1.500001,1.2 3.300001,1.9 5.299996,2.3 4,0.9 8.1,0.9 12.20001,0.5 4.4,-0.4 8.7,-1.2 12.9,-2.6 3.5,-1.1 6.8,-2.5 9.8,-4.6 1.3,-0.9 2.4,-1.9 3.2,-3.2 0.7,-1.1 1,-2.1 0.8,-3.2 z"
     id="path2352" />
</svg>
