<?xml version="1.0" encoding="UTF-8" standalone="no"?>
<svg
   xmlns:dc="http://purl.org/dc/elements/1.1/"
   xmlns:cc="http://creativecommons.org/ns#"
   xmlns:rdf="http://www.w3.org/1999/02/22-rdf-syntax-ns#"
   xmlns:svg="http://www.w3.org/2000/svg"
   xmlns="http://www.w3.org/2000/svg"
   xmlns:sodipodi="http://sodipodi.sourceforge.net/DTD/sodipodi-0.dtd"
   xmlns:inkscape="http://www.inkscape.org/namespaces/inkscape"
   enable-background="new 0 0 201.5 201.5"
   viewBox="0 0 201.5 201.5"
   version="1.1"
   id="svg6053"
   sodipodi:docname="Jobs-Trainings.svg"
   inkscape:version="0.92.1 r15371">
  <metadata
     id="metadata6059">
    <rdf:RDF>
      <cc:Work
         rdf:about="">
        <dc:format>image/svg+xml</dc:format>
        <dc:type
           rdf:resource="http://purl.org/dc/dcmitype/StillImage" />
      </cc:Work>
    </rdf:RDF>
  </metadata>
  <defs
     id="defs6057" />
  <sodipodi:namedview
     pagecolor="#ffffff"
     bordercolor="#666666"
     borderopacity="1"
     objecttolerance="10"
     gridtolerance="10"
     guidetolerance="10"
     inkscape:pageopacity="0"
     inkscape:pageshadow="2"
     inkscape:window-width="1303"
     inkscape:window-height="744"
     id="namedview6055"
     showgrid="false"
     inkscape:zoom="1.1712159"
     inkscape:cx="100.75"
     inkscape:cy="100.75"
     inkscape:window-x="57"
     inkscape:window-y="24"
     inkscape:window-maximized="1"
     inkscape:current-layer="svg6053" />
  <linearGradient
     id="rw-loop"
     gradientTransform="matrix(1,0,0,-1,-1.891166,-2675.713)"
     gradientUnits="userSpaceOnUse"
     x1="96.071602"
     x2="141.8721"
     y1="-2749.8801"
     y2="-2749.8801">
    <stop
       offset="0"
       stop-color="#f65c51"
       id="stop5955" />
    <stop
       offset=".1464"
       stop-color="#d9615e"
       id="stop5957" />
    <stop
       offset=".4642"
       stop-color="#906f7f"
       id="stop5959" />
    <stop
       offset=".9262"
       stop-color="#1c84b2"
       id="stop5961" />
    <stop
       offset="1"
       stop-color="#0988bb"
       id="stop5963" />
  </linearGradient>
  <filter
     id="b"
     color-interpolation-filters="sRGB">
    <feFlood
       flood-color="#999"
       flood-opacity=".6"
       result="flood"
       id="feFlood5966" />
    <feComposite
       in="flood"
       in2="SourceGraphic"
       operator="in"
       result="composite1"
       id="feComposite5968" />
    <feGaussianBlur
       in="composite1"
       result="blur"
       stdDeviation=".9"
       id="feGaussianBlur5970" />
    <feOffset
       dx="2"
       dy="2"
       result="offset"
       id="feOffset5972" />
    <feComposite
       in="SourceGraphic"
       in2="offset"
       operator="over"
       result="composite2"
       id="feComposite5974" />
  </filter>
  <circle
     cx="100.7"
     cy="100.7"
     fill="#f2f2f2"
     opacity=".5"
     r="73.3"
     id="circle5977" />
  <path
     d="m40.8 153.5-2.7 2.2 1.5 7.2 5.3 3.4h37.2l6.2-3 1.9-7.5-1.5-2.3z"
     fill="#fff"
     id="path5979" />
  <path
     d="m38.1 76.2 3.8-7.7 26.9-.5 20.6 1 2.6 4.4v4.7l-51.7-.8z"
     fill="#fff"
     id="path5981" />
  <path
     d="m 38.1,78.1 h 52.1 v 75.4 H 38.1 Z"
     id="path5983"
     class="app-background"
     inkscape:connector-curvature="0"
     style="fill:#cc6669" />
  <g
     fill="#fff"
     id="g5999">
    <path
       d="m59.3 150.9h-14.3c-1.7 0-3.1-1.4-3.1-3.1v-21.2c0-1.7 1.4-3.1 3.1-3.1h14.3c1.7 0 3.1 1.4 3.1 3.1v21.2c0 1.7-1.4 3.1-3.1 3.1z"
       id="path5985" />
    <path
       d="m81.5 150.9h-14.4c-1.7 0-3.1-1.4-3.1-3.1v-21.2c0-1.7 1.4-3.1 3.1-3.1h14.3c1.7 0 3.1 1.4 3.1 3.1v21.2c.1 1.7-1.3 3.1-3 3.1z"
       id="path5987" />
    <path
       d="m89.4 123.4h-.4c-1.7 0-3.1 1.4-3.1 3.1v21.2c0 1.7 1.4 3.1 3.1 3.1h.4z"
       id="path5989" />
    <path
       d="m42.8 82.9h23.2v2.1h-23.2z"
       id="path5991" />
    <path
       d="m42.8 93.5h23.2v.8h-23.2z"
       id="path5993" />
    <path
       d="m42.8 97.9h28.7v.8h-28.7z"
       id="path5995" />
    <path
       d="m42.8 107h23.2v.8h-23.2z"
       id="path5997" />
  </g>
  <g
     fill="#c1c1c1"
     id="g6013">
    <path
       d="m44.9 135.1h15.4v.8h-15.4z"
       id="path6001" />
    <path
       d="m44.9 138.9h15.4v.8h-15.4z"
       id="path6003" />
    <path
       d="m44.9 142.8h11v .8h-11z"
       id="path6005" />
    <path
       d="m66.6 135.1h15.4v.8h-15.4z"
       id="path6007" />
    <path
       d="m66.6 138.9h15.4v.8h-15.4z"
       id="path6009" />
    <path
       d="m66.6 142.8h11v .8h-11z"
       id="path6011" />
  </g>
  <path
     d="m42.8 111.5h28.7v.8h-28.7z"
     fill="#fff"
     id="path6015" />
  <path
     d="m39.6 90h49.8"
     fill="none"
     stroke="#fff"
     stroke-miterlimit="10"
     stroke-width=".2345"
     id="path6017" />
  <path
     d="m39.6 102.6h49.8"
     fill="none"
     stroke="#fff"
     stroke-miterlimit="10"
     stroke-width=".2345"
     id="path6019" />
  <path
     d="m39.6 116.1h49.8"
     fill="none"
     stroke="#fff"
     stroke-miterlimit="10"
     stroke-width=".2345"
     id="path6021" />
  <path
     d="m44.9 127.5h4.4v4.4h-4.4z"
     fill="#c1c1c1"
     id="path6023" />
  <path
     d="m66.6 127.5h4.4v4.4h-4.4z"
     fill="#c1c1c1"
     id="path6025" />
  <path
     d="m77.8 105.2h8.3v8.3h-8.3z"
     fill="#e6e6e6"
     id="path6027" />
  <path
     d="m77.8 91.8h8.3v8.3h-8.3z"
     fill="#e6e6e6"
     id="path6029" />
  <path
     d="m82.1 166.3h-35.9c-4.5 0-8.1-3.7-8.1-8.1v-82c0-4.5 3.7-8.1 8.1-8.1h35.8c4.5 0 8.1 3.7 8.1 8.1v81.9c.1 4.5-3.6 8.2-8 8.2z"
     fill="none"
     stroke="#3e3e3f"
     stroke-miterlimit="10"
     stroke-width="2.16"
     id="path6031" />
  <path
     d="m38.1 78.1h52.1"
     fill="none"
     stroke="#3e3e3f"
     stroke-miterlimit="10"
     stroke-width="2.16"
     id="path6033" />
  <path
     d="m38.1 153.5h52.1"
     fill="none"
     stroke="#3e3e3f"
     stroke-miterlimit="10"
     stroke-width="2.16"
     id="path6035" />
  <path
     d="m58.9 73.4h10.2"
     fill="none"
     stroke="#3e3e3f"
     stroke-linecap="round"
     stroke-miterlimit="10"
     stroke-width="2.16"
     id="path6037" />
  <path
     d="m118.4 27.2 0 0c-22.4 0-40.5 18.1-40.5 40.5v40.5h40.5c22.4 0 40.5-18.1 40.5-40.5v0c0-22.4-18.1-40.5-40.5-40.5z"
     fill="#fff"
     filter="url(#b)"
     id="path6039" />
  <path
     d="m139.5 129.2-10.8 10.8"
     fill="none"
     stroke="#ffe3e3"
     stroke-miterlimit="10"
     stroke-width="2.244"
     id="path6041" />
  <path
     d="m140.2 140v-9.2c0-1.2-1-2.2-2.2-2.2h-9.2"
     fill="none"
     stroke="#ffe3e3"
     stroke-miterlimit="10"
     stroke-width="2.244"
     id="path6043" />
  <path
     d="m123.3 130.9h-2.2c-1.2 0-2.2 1-2.2 2.2v14c0 1.2 1 2.2 2.2 2.2h14.5c1.2 0 2.2-1 2.2-2.2v-1.6"
     fill="none"
     stroke="#ffe3e3"
     stroke-miterlimit="10"
     stroke-width="2.244"
     id="path6045" />
  <path
     d="m101.8 62.3c0-3.2-.4-3.9-.4-4.6 0-.8 2.8-1 3.6-1 1 0 1.1 1.3 1.3 2.1.7-1.2 1.6-2.5 3.5-2.5 1.6 0 1.8 1.1 1.8 1.7s-.4 2.7-1 2.7c-.5 0-.9-.3-1.5-.3-1.3 0-2.2 1-2.6 1.6v10.4c0 .7-.6 1-1.9 1h-.9c-1.4 0-1.9-.4-1.9-1z"
     fill="#404040"
     id="path6047" />
  <path
     d="m113.1 57.8c-.1-.2-.1-.4-.1-.5 0-.9 2.7-.8 2.7-.8.9 0 1.7.2 1.9.6l2.6 10 2.4-10c .1-.5.7-.7 1.8-.7h.8c.9 0 1.7.2 1.8.7l2.4 10 2.6-10c .1-.5.7-.7 1.8-.7h.1c1.4 0 2 .3 2 .8 0 .1 0 .3-.1.5l-3.8 15c-.1.5-.9.7-1.8.7h-1.6c-1 0-1.6-.2-1.8-.7l-2.4-9.1-2.2 9.1c-.1.5-.9.7-1.8.7h-1.4c-1.1 0-1.6-.2-1.8-.7z"
     fill="#404040"
     id="path6049" />
  <path
     d="m 139.90884,69.30378 c -0.3,-2.1 -2.9,-3.7 -4.5,-3.9 0.6,0.4 1.2,0.8 1.7,1.3 0.9,0.9 1.3,1.9 1,3.2 -0.3,1.2 -1,2.1 -1.9,3 -2,1.9 -4.5,3.2 -7.1,4.2 -4.6,1.9 -9.5,2.9 -14.4,3.4 -3.30001,0.3 -6.50001,0.3 -9.80001,-0.3 -1.8,-0.3 -3.6,-0.8 -5.199995,-1.9 -1.6,-1.1 -2.1,-2.5 -1.6,-4.1 l -0.7,-2.4 v 0 c -0.700001,0.5 -2.000001,1.6 -2.800001,3.2 -1,1.9 -0.6,3.7 1.1,5.1 1.500001,1.2 3.300001,1.9 5.299996,2.3 4,0.9 8.1,0.9 12.20001,0.5 4.4,-0.4 8.7,-1.2 12.9,-2.6 3.5,-1.1 6.8,-2.5 9.8,-4.6 1.3,-0.9 2.4,-1.9 3.2,-3.2 0.7,-1.1 1,-2.1 0.8,-3.2 z"
     id="path6051"
     inkscape:connector-curvature="0"
     style="fill:url(#rw-loop)" />
</svg>
