<?xml version="1.0" encoding="UTF-8" standalone="no"?>
<svg
   xmlns:dc="http://purl.org/dc/elements/1.1/"
   xmlns:cc="http://creativecommons.org/ns#"
   xmlns:rdf="http://www.w3.org/1999/02/22-rdf-syntax-ns#"
   xmlns:svg="http://www.w3.org/2000/svg"
   xmlns="http://www.w3.org/2000/svg"
   xmlns:sodipodi="http://sodipodi.sourceforge.net/DTD/sodipodi-0.dtd"
   xmlns:inkscape="http://www.inkscape.org/namespaces/inkscape"
   enable-background="new 0 0 201.5 201.5"
   viewBox="0 0 201.5 201.5"
   xml:space="preserve"
   version="1.1"
   id="svg4666"
   sodipodi:docname="key-figures.svg"
   inkscape:version="0.92.1 r15371"><metadata
     id="metadata4672"><rdf:RDF><cc:Work
         rdf:about=""><dc:format>image/svg+xml</dc:format><dc:type
           rdf:resource="http://purl.org/dc/dcmitype/StillImage" /></cc:Work></rdf:RDF></metadata><defs
     id="defs4670" /><sodipodi:namedview
     pagecolor="#ffffff"
     bordercolor="#666666"
     borderopacity="1"
     objecttolerance="10"
     gridtolerance="10"
     guidetolerance="10"
     inkscape:pageopacity="0"
     inkscape:pageshadow="2"
     inkscape:window-width="1303"
     inkscape:window-height="744"
     id="namedview4668"
     showgrid="false"
     inkscape:zoom="2.9875931"
     inkscape:cx="100.75"
     inkscape:cy="100.75"
     inkscape:window-x="57"
     inkscape:window-y="24"
     inkscape:window-maximized="1"
     inkscape:current-layer="svg4666" /><filter
     id="a"
     color-interpolation-filters="sRGB"><feFlood
       flood-color="#999"
       flood-opacity=".6"
       result="flood"
       id="feFlood4485" /><feComposite
       in="flood"
       in2="SourceGraphic"
       operator="in"
       result="composite1"
       id="feComposite4487" /><feGaussianBlur
       in="composite1"
       result="blur"
       stdDeviation=".9"
       id="feGaussianBlur4489" /><feOffset
       dx="2"
       dy="2"
       result="offset"
       id="feOffset4491" /><feComposite
       in="SourceGraphic"
       in2="offset"
       operator="over"
       result="fbSourceGraphic"
       id="feComposite4493" /><feColorMatrix
       in="fbSourceGraphic"
       result="fbSourceGraphicAlpha"
       values="0 0 0 -1 0 0 0 0 -1 0 0 0 0 -1 0 0 0 0 1 0"
       id="feColorMatrix4495" /><feFlood
       flood-color="#999"
       flood-opacity=".6"
       in="fbSourceGraphic"
       result="flood"
       id="feFlood4497" /><feComposite
       in="flood"
       in2="fbSourceGraphic"
       operator="in"
       result="composite1"
       id="feComposite4499" /><feGaussianBlur
       in="composite1"
       result="blur"
       stdDeviation=".9"
       id="feGaussianBlur4501" /><feOffset
       dx="2"
       dy="2"
       result="offset"
       id="feOffset4503" /><feComposite
       in="fbSourceGraphic"
       in2="offset"
       operator="over"
       result="composite2"
       id="feComposite4505" /></filter><filter
     id="b"
     color-interpolation-filters="sRGB"><feFlood
       flood-color="#999"
       flood-opacity=".6"
       result="flood"
       id="feFlood4508" /><feComposite
       in="flood"
       in2="SourceGraphic"
       operator="in"
       result="composite1"
       id="feComposite4510" /><feGaussianBlur
       in="composite1"
       result="blur"
       stdDeviation=".9"
       id="feGaussianBlur4512" /><feOffset
       dx="2"
       dy="2"
       result="offset"
       id="feOffset4514" /><feComposite
       in="SourceGraphic"
       in2="offset"
       operator="over"
       result="composite2"
       id="feComposite4516" /></filter><clipPath
     id="c"><path
       d="m100.1 80.1c.2.1.4.3.6.4-.1-.1-.4-.3-.6-.4z"
       id="path4519" /></clipPath><clipPath
     id="d"><path
       d="m-605.6-2123.5h926.8v2357.8h-926.8z"
       id="path4522" /></clipPath><clipPath
     id="e"><path
       d="m108.7 82.1h.5c-.1 0-.3 0-.5 0z"
       id="path4525" /></clipPath><clipPath
     id="f"><path
       d="m-605.6-2123.5h926.8v2357.8h-926.8z"
       id="path4528" /></clipPath><clipPath
     id="g"><path
       d="m102.6 81.1c.1.1.3.2.4.2-.1-.1-.3-.1-.4-.2z"
       id="path4531" /></clipPath><clipPath
     id="h"><path
       d="m-605.6-2123.5h926.8v2357.8h-926.8z"
       id="path4534" /></clipPath><clipPath
     id="i"><path
       d="m114.4 82.1c0-.1.1-.1.1-.2 0 .1.1.1.1.2z"
       id="path4537" /></clipPath><clipPath
     id="j"><path
       d="m-605.6-2123.5h926.8v2357.8h-926.8z"
       id="path4540" /></clipPath><clipPath
     id="k"><path
       d="m114.8 81.6v.1h-.1z"
       id="path4543" /></clipPath><clipPath
     id="l"><path
       d="m-605.6-2123.5h926.8v2357.8h-926.8z"
       id="path4546" /></clipPath><linearGradient
     id="m"
     gradientTransform="matrix(1 0 0 -1 0 -2677.0168)"
     gradientUnits="userSpaceOnUse"
     x1="96.0716"
     x2="141.8721"
     y1="-2749.8801"
     y2="-2749.8801"><stop
       offset="0"
       stop-color="#f65c51"
       id="stop4549" /><stop
       offset=".1464"
       stop-color="#d9615e"
       id="stop4551" /><stop
       offset=".4642"
       stop-color="#906f7f"
       id="stop4553" /><stop
       offset=".9262"
       stop-color="#1c84b2"
       id="stop4555" /><stop
       offset="1"
       stop-color="#0988bb"
       id="stop4557" /></linearGradient><circle
     cx="100.7"
     cy="100.7"
     fill="#f2f2f2"
     opacity=".5"
     r="73.3"
     id="circle4560" /><path
     d="m40.8 153.5-2.7 2.2 1.5 7.2 5.2 3.4h37.3l6.2-3 1.9-7.5-1.5-2.3z"
     fill="#fff"
     id="path4562" /><path
     d="m38.1 76.2 3.8-7.7 26.9-.5 15.8.1 4.9 4.9.7 5.1-49.9-.8z"
     fill="#fff"
     id="path4564" /><path
     d="m 38.1,78.1 h 52.1 v 75.4 H 38.1 Z"
     id="path4566"
     class="app-background"
     inkscape:connector-curvature="0"
     style="fill:#cc6669" /><g
     fill="#fff"
     id="g4586"><path
       d="m59.3 150.9h-14.3c-1.7 0-3.1-1.4-3.1-3.1v-21.2c0-1.7 1.4-3.1 3.1-3.1h14.3c1.7 0 3.1 1.4 3.1 3.1v21.2c0 1.7-1.4 3.1-3.1 3.1z"
       id="path4568" /><path
       d="m81.5 150.9h-14.4c-1.7 0-3.1-1.4-3.1-3.1v-21.2c0-1.7 1.4-3.1 3.1-3.1h14.3c1.7 0 3.1 1.4 3.1 3.1v21.2c.1 1.7-1.3 3.1-3 3.1z"
       id="path4570" /><path
       d="m89.4 123.4h-.4c-1.7 0-3.1 1.4-3.1 3.1v21.2c0 1.7 1.4 3.1 3.1 3.1h.4z"
       id="path4572" /><path
       d="m42.8 82.9h23.2v2.1h-23.2z"
       id="path4574" /><path
       d="m73.1 93.5h12.7v2.4h-12.7z"
       id="path4576" /><path
       d="m73.1 107h12.7v2.4h-12.7z"
       id="path4578" /><path
       d="m42.8 93.5h23.2v.8h-23.2z"
       id="path4580" /><path
       d="m42.8 97.9h28.7v.8h-28.7z"
       id="path4582" /><path
       d="m42.8 107h23.2v.8h-23.2z"
       id="path4584" /></g><path
     d="m44.8 135.1h15.4v.8h-15.4z"
     fill="#c1c1c1"
     id="path4588" /><path
     d="m44.8 138.9h15.4v.8h-15.4z"
     fill="#c1c1c1"
     id="path4590" /><path
     d="m44.8 142.8h11v .8h-11z"
     fill="#c1c1c1"
     id="path4592" /><path
     d="m66.6 135.1h15.4v.8h-15.4z"
     fill="#c1c1c1"
     id="path4594" /><path
     d="m66.6 138.9h15.4v.8h-15.4z"
     fill="#c1c1c1"
     id="path4596" /><path
     d="m66.6 142.8h11v .8h-11z"
     fill="#c1c1c1"
     id="path4598" /><path
     d="m42.8 111.5h28.7v.8h-28.7z"
     fill="#fff"
     id="path4600" /><path
     d="m39.6 90h49.8"
     fill="none"
     stroke="#fff"
     stroke-miterlimit="10"
     stroke-width=".2345"
     id="path4602" /><path
     d="m39.6 102.6h49.8"
     fill="none"
     stroke="#fff"
     stroke-miterlimit="10"
     stroke-width=".2345"
     id="path4604" /><path
     d="m39.6 116.1h49.8"
     fill="none"
     stroke="#fff"
     stroke-miterlimit="10"
     stroke-width=".2345"
     id="path4606" /><path
     d="m44.8 127.5h4.4v4.4h-4.4z"
     fill="#c1c1c1"
     id="path4608" /><path
     d="m66.6 127.5h4.4v4.4h-4.4z"
     fill="#c1c1c1"
     id="path4610" /><path
     d="m82.1 166.3h-35.9c-4.5 0-8.1-3.7-8.1-8.1v-82c0-4.5 3.7-8.1 8.1-8.1h35.8c4.5 0 8.1 3.7 8.1 8.1v81.9c.1 4.5-3.6 8.2-8 8.2z"
     fill="none"
     stroke="#3e3e3f"
     stroke-miterlimit="10"
     stroke-width="2.16"
     id="path4612" /><path
     d="m38.1 78.1h52.1"
     fill="none"
     stroke="#3e3e3f"
     stroke-miterlimit="10"
     stroke-width="2.16"
     id="path4614" /><path
     d="m38.1 153.5h52.1"
     fill="none"
     stroke="#3e3e3f"
     stroke-miterlimit="10"
     stroke-width="2.16"
     id="path4616" /><path
     d="m58.9 73.4h10.2"
     fill="none"
     stroke="#3e3e3f"
     stroke-linecap="round"
     stroke-miterlimit="10"
     stroke-width="2.16"
     id="path4618" /><path
     d="m119.2 25.7 0 0c-22.4 0-40.5 18.1-40.5 40.5v40.5h40.5c22.4 0 40.5-18.1 40.5-40.5v0c0-22.4-18.1-40.5-40.5-40.5z"
     fill="#fff"
     filter="url(#a)"
     id="path4620" /><g
     clip-path="url(#c)"
     id="g4624"><path
       clip-path="url(#d)"
       d="m87.8 67.7h25.4v25.1h-25.4z"
       fill="#e85962"
       id="path4622" /></g><g
     clip-path="url(#e)"
     id="g4628"><path
       clip-path="url(#f)"
       d="m96.4 69.8h25.2v24.7h-25.2z"
       fill="#e87597"
       id="path4626" /></g><g
     clip-path="url(#g)"
     id="g4632"><path
       clip-path="url(#h)"
       d="m90.2 68.7h25.1v24.9h-25.1z"
       fill="#e9606f"
       id="path4630" /></g><g
     clip-path="url(#i)"
     id="g4636"><path
       clip-path="url(#j)"
       d="m102.1 69.6h25v24.9h-25z"
       fill="#e389b7"
       id="path4634" /></g><g
     clip-path="url(#k)"
     id="g4640"><path
       clip-path="url(#l)"
       d="m102.4 69.2h24.8v24.8h-24.8z"
       fill="#e389b7"
       id="path4638" /></g><path
     d="m 121,96.7 h 56.4 v 53.1 H 121 Z"
     id="path4642"
     class="app-background"
     inkscape:connector-curvature="0"
     style="fill:#cc6669;filter:url(#b)" /><g
     fill="none"
     stroke="#fff"
     stroke-miterlimit="10"
     stroke-width=".2177"
     id="g4652"><path
       d="m122.8 98.5h52.8"
       id="path4644" /><path
       d="m122.8 115h52.8"
       id="path4646" /><path
       d="m122.8 131.5h52.8"
       id="path4648" /><path
       d="m122.8 148h52.8"
       id="path4650" /></g><text
     fill="#fff"
     font-family="'FiraSans-ExtraLight'"
     font-size="11.6059"
     transform="translate(157.3575 109.3866)"
     id="text4654">###</text>
<text
     fill="#fff"
     font-family="'FiraSans-ExtraLight'"
     font-size="11.6059"
     transform="translate(163.1368 125.8017)"
     id="text4656">##</text>
<text
     fill="#fff"
     font-family="'FiraSans-ExtraLight'"
     font-size="11.6059"
     transform="translate(151.5782 142.2157)"
     id="text4658">####</text>
<path
     d="m102.6 60.8c0-3.2-.4-3.9-.4-4.6 0-.8 2.8-1 3.6-1 1 0 1.1 1.3 1.3 2.1.7-1.2 1.6-2.5 3.5-2.5 1.6 0 1.8 1.1 1.8 1.7s-.4 2.7-1 2.7c-.5 0-.9-.3-1.5-.3-1.3 0-2.2 1-2.6 1.6v10.4c0 .7-.6 1-1.9 1h-.9c-1.4 0-1.9-.4-1.9-1z"
     fill="#404040"
     id="path4660" /><path
     d="m113.9 56.4c-.1-.2-.1-.4-.1-.5 0-.9 2.7-.8 2.7-.8.9 0 1.7.2 1.9.6l2.6 10 2.4-10c .1-.5.7-.7 1.8-.7h.8c.9 0 1.7.2 1.8.7l2.4 10 2.6-10c .1-.5.7-.7 1.8-.7h.1c1.4 0 2 .3 2 .8 0 .1 0 .3-.1.5l-3.8 15c-.1.5-.9.7-1.8.7h-1.6c-1 0-1.6-.2-1.8-.7l-2.4-9.1-2.2 9.1c-.1.5-.9.7-1.8.7h-1.6c-1.1 0-1.6-.2-1.8-.7z"
     fill="#404040"
     id="path4662" /><path
     d="m141.8 68c-.3-2.1-2.9-3.7-4.5-3.9.6.4 1.2.8 1.7 1.3.9.9 1.3 1.9 1 3.2-.3 1.2-1 2.1-1.9 3-2 1.9-4.5 3.2-7.1 4.2-4.6 1.9-9.5 2.9-14.4 3.4-3.3.3-6.5.3-9.8-.3-1.8-.3-3.6-.8-5.2-1.9s-2.1-2.5-1.6-4.1l-.7-2.4 0 0c-.7.5-2 1.6-2.8 3.2-1 1.9-.6 3.7 1.1 5.1 1.5 1.2 3.3 1.9 5.3 2.3 4 .9 8.1.9 12.2.5 4.4-.4 8.7-1.2 12.9-2.6 3.5-1.1 6.8-2.5 9.8-4.6 1.3-.9 2.4-1.9 3.2-3.2.7-1.1 1-2.1.8-3.2z"
     fill="url(#m)"
     id="path4664" /></svg>