<?xml version="1.0" encoding="UTF-8" standalone="no"?>
<svg
   xmlns:dc="http://purl.org/dc/elements/1.1/"
   xmlns:cc="http://creativecommons.org/ns#"
   xmlns:rdf="http://www.w3.org/1999/02/22-rdf-syntax-ns#"
   xmlns:svg="http://www.w3.org/2000/svg"
   xmlns="http://www.w3.org/2000/svg"
   id="svg3827"
   version="1.1"
   viewBox="0 0 30.552601 30.336544"
   height="30.336544mm"
   width="30.552601mm">
  <defs
     id="defs3821">
    <linearGradient
       y2="-5096.3384"
       y1="-5096.3384"
       x2="164.0096"
       x1="146.49989"
       gradientUnits="userSpaceOnUse"
       gradientTransform="matrix(1.2824612,0,0,-1.2824612,-43.727848,-6322.9177)"
       id="a">
      <stop
         id="stop2"
         stop-color="#f65c51"
         offset="0" />
      <stop
         id="stop4"
         stop-color="#d9615e"
         offset=".1464" />
      <stop
         id="stop6"
         stop-color="#906f7f"
         offset=".4642" />
      <stop
         id="stop8"
         stop-color="#1c84b2"
         offset=".9262" />
      <stop
         id="stop10"
         stop-color="#0988bb"
         offset="1" />
    </linearGradient>
  </defs>
  <metadata
     id="metadata3824">
    <rdf:RDF>
      <cc:Work
         rdf:about="">
        <dc:format>image/svg+xml</dc:format>
        <dc:type
           rdf:resource="http://purl.org/dc/dcmitype/StillImage" />
        <dc:title></dc:title>
      </cc:Work>
    </rdf:RDF>
  </metadata>
  <g
     transform="translate(-140.17531,-200.45379)"
     id="layer1">
    <path
       id="path87"
       d="m 140.2,219.9 h 30.52791 v 10.89033 H 140.2 Z"
       style="fill:#888888;stroke-width:1.00091529" />
    <g
       transform="translate(-0.02469037,0.05378686)"
       id="g107"
       style="fill:#ffffff">
      <path
         id="path89"
         d="m 140.2,200.4 h 30.5 v 19.5 h -30.5 z" />
    </g>
    <path
       id="path109"
       d="m 147.35889,207.01642 c 0,-1.53896 -0.12844,-1.92367 -0.12844,-2.18018 0,-0.38486 1.4107,-0.51297 1.79541,-0.51297 0.51302,0 0.51302,0.64123 0.64122,1.02594 0.38486,-0.64122 0.76948,-1.15419 1.66721,-1.15419 0.76948,0 0.89773,0.51297 0.89773,0.89773 0,0.25641 -0.12845,1.28244 -0.51297,1.28244 -0.25641,0 -0.38486,-0.12844 -0.76947,-0.12844 -0.64123,0 -1.02599,0.51301 -1.2825,0.76947 v 5.12983 c 0,0.38486 -0.25641,0.51302 -0.89768,0.51302 h -0.38486 c -0.64122,0 -0.89773,-0.12845 -0.89773,-0.51302 v -5.12983 z"
       style="fill:#404040;stroke-width:1.28246117" />
    <path
       id="path111"
       d="m 152.87344,204.83624 c 0,-0.12845 0,-0.12845 0,-0.25641 0,-0.38486 1.28249,-0.38486 1.28249,-0.38486 0.38486,0 0.89773,0.12845 0.89773,0.25641 l 1.28245,4.87337 1.15419,-4.87337 c 0,-0.25641 0.38486,-0.38486 0.89773,-0.38486 h 0.38486 c 0.38486,0 0.76947,0.12845 0.89773,0.38486 l 1.15424,4.87337 1.28244,-4.87337 c 0,-0.25641 0.38486,-0.38486 0.89773,-0.38486 v 0 c 0.64123,0 1.02594,0.12845 1.02594,0.38486 v 0.25641 l -1.92367,7.31006 c 0,0.25641 -0.38486,0.38486 -0.89773,0.38486 h -0.76947 c -0.51297,0 -0.76948,-0.12845 -0.89774,-0.38486 l -1.15419,-4.48866 -1.02598,4.48866 c 0,0.25641 -0.38486,0.38486 -0.89773,0.38486 h -0.76948 c -0.51297,0 -0.76948,-0.12845 -0.89773,-0.38486 z"
       style="fill:#404040;stroke-width:1.28246117" />
    <path
       id="path113"
       d="m 166.59581,210.60729 c -0.12845,-1.02593 -1.41075,-1.79541 -2.18022,-1.92366 0.25641,0.25641 0.64127,0.38485 0.89773,0.64122 0.38486,0.38486 0.64122,0.89773 0.51302,1.53895 -0.12845,0.64122 -0.51302,1.02599 -0.89773,1.4107 -1.02599,0.89773 -2.18018,1.53895 -3.46267,2.05197 -2.30843,0.89768 -4.61686,1.4107 -7.05355,1.66716 -1.66716,0.12845 -3.20611,0.12845 -4.74507,-0.12845 -0.89773,-0.12845 -1.79546,-0.38486 -2.56493,-0.89773 -0.76948,-0.51302 -1.02599,-1.15424 -0.76948,-2.05197 l -0.38486,-1.15419 v 0 c -0.38486,0.25641 -1.02599,0.76948 -1.4107,1.53895 -0.51302,0.89773 -0.25641,1.79546 0.51297,2.56494 0.76948,0.64122 1.66721,0.89768 2.56494,1.15419 1.92366,0.38486 3.97564,0.38486 5.8993,0.25641 2.18018,-0.12844 4.23215,-0.64122 6.28407,-1.28249 1.66721,-0.51297 3.33442,-1.28244 4.87337,-2.30843 0.64122,-0.38486 1.15419,-0.89768 1.53895,-1.53895 0.25641,-0.64123 0.51297,-1.02594 0.38486,-1.53896 z"
       style="fill:url(#a);stroke-width:1.28246117" />
    <g
       id="Videos-2"
       style="font-weight:700;font-size:6.15182829px;font-family:'Source Sans Pro';text-transform:uppercase;text-anchor:middle;fill:#ffffff;stroke-width:0.2357384"
       aria-label="JOBS">
      <path
         id="path5721"
         style="stroke-width:2.09047294"
         d="m 148.01531,223.06997 h 1.15647 v 4.04915 q 0,0.83806 -0.45658,1.25259 -0.45358,0.41453 -1.37575,0.41453 h -0.2343 v -0.87411 h 0.18023 q 0.36046,0 0.54369,-0.20126 0.18624,-0.20126 0.18624,-0.59175 z" />
      <path
         id="path5723"
         style="stroke-width:2.09047294"
         d="m 152.35884,223.82693 q -0.52868,0 -0.82005,0.3905 -0.29137,0.39049 -0.29137,1.09939 0,0.7059 0.29137,1.0964 0.29137,0.3905 0.82005,0.3905 0.53167,0 0.82304,-0.3905 0.29137,-0.3905 0.29137,-1.0964 0,-0.7089 -0.29137,-1.09939 -0.29137,-0.3905 -0.82304,-0.3905 z m 0,-0.83807 q 1.08137,0 1.69415,0.61879 0.61278,0.61879 0.61278,1.70917 0,1.08739 -0.61278,1.70618 -0.61278,0.61878 -1.69415,0.61878 -1.07838,0 -1.69416,-0.61878 -0.61278,-0.61879 -0.61278,-1.70618 0,-1.09038 0.61278,-1.70917 0.61578,-0.61879 1.69416,-0.61879 z" />
      <path
         id="path5725"
         style="stroke-width:2.09047294"
         d="m 157.33317,224.80617 q 0.27334,0 0.41452,-0.12015 0.14118,-0.12015 0.14118,-0.35445 0,-0.23129 -0.14118,-0.35145 -0.14118,-0.12315 -0.41452,-0.12315 h -0.63982 v 0.9492 z m 0.0391,1.9615 q 0.34844,0 0.52266,-0.14719 0.17723,-0.14718 0.17723,-0.44456 0,-0.29137 -0.17422,-0.43556 -0.17423,-0.14718 -0.52567,-0.14718 h -0.67887 v 1.17449 z m 1.07536,-1.61305 q 0.37248,0.10814 0.57674,0.39951 0.20426,0.29137 0.20426,0.71491 0,0.64882 -0.43856,0.96723 -0.43856,0.3184 -1.3337,0.3184 h -1.91944 v -4.4847 h 1.73621 q 0.93419,0 1.35172,0.28235 0.42054,0.28236 0.42054,0.90416 0,0.32741 -0.1532,0.55871 -0.15319,0.22829 -0.44457,0.33943 z" />
      <path
         id="path5727"
         style="stroke-width:2.09047294"
         d="m 163.34382,223.21115 v 0.9492 q -0.36947,-0.16521 -0.72092,-0.24931 -0.35145,-0.0841 -0.66385,-0.0841 -0.41452,0 -0.61278,0.11414 -0.19825,0.11415 -0.19825,0.35445 0,0.18023 0.13217,0.28236 0.13517,0.0991 0.48662,0.17122 l 0.49263,0.0991 q 0.74795,0.15019 1.06335,0.45658 0.3154,0.30639 0.3154,0.87111 0,0.74194 -0.44156,1.1054 -0.43856,0.36046 -1.34271,0.36046 -0.42654,0 -0.85609,-0.0811 -0.42955,-0.0811 -0.85909,-0.24031 v -0.97624 q 0.42954,0.22829 0.82905,0.34544 0.40251,0.11415 0.77499,0.11415 0.37848,0 0.57974,-0.12616 0.20125,-0.12616 0.20125,-0.36046 0,-0.21027 -0.13817,-0.32442 -0.13518,-0.11414 -0.5437,-0.20426 l -0.44756,-0.0991 q -0.67286,-0.14418 -0.98526,-0.45959 -0.30939,-0.3154 -0.30939,-0.85008 0,-0.66985 0.43255,-1.03031 0.43255,-0.36046 1.24358,-0.36046 0.36947,0 0.75997,0.0571 0.39049,0.0541 0.80803,0.16522 z" />
    </g>
  </g>
</svg>
