<svg enable-background="new 0 0 87.2 87.2" viewBox="0 0 87.2 87.2" xmlns="http://www.w3.org/2000/svg" xmlns:xlink="http://www.w3.org/1999/xlink"><path d="m0 55.8h87.2v31.4h-87.2z" fill="#c09bd3"/><path d="m0 0h87.2v55.8h-87.2z" fill="#fff"/><path d="m17 66.9h2.3l2.4 6.6 2.4-6.6h2.2l-3.8 9.4h-1.8z" fill="#fff"/><path d="m27.9 66.9h2.1v9.4h-2.1z" fill="#fff"/><path d="m32.3 66.9h3.7c2.9 0 5 2 5 4.7v0c0 2.6-2 4.7-5 4.7h-3.6v-9.4zm3.7 7.5c1.7 0 2.8-1.1 2.8-2.8v0c0-1.7-1.1-2.8-2.8-2.8h-1.6v5.6z" fill="#fff"/><path d="m42.8 66.9h7.1v1.8h-5v1.9h4.4v1.8h-4.4v2h5.1v1.8h-7.1v-9.3z" fill="#fff"/><path d="m51.3 71.6 0 0c0-2.7 2.1-4.9 5-4.9s5 2.2 5 4.8v0c0 2.7-2.1 4.8-5 4.8-2.9.1-5-2.1-5-4.7zm7.8 0 0 0c0-1.6-1.2-3-2.8-3-1.7 0-2.8 1.3-2.8 2.9v0c0 1.6 1.2 2.9 2.8 2.9 1.7.1 2.8-1.2 2.8-2.8z" fill="#fff"/><path d="m62.4 74.9 1.2-1.5c.8.7 1.7 1.1 2.8 1.1.8 0 1.4-.3 1.4-.9v0c0-.5-.3-.8-1.9-1.2-1.9-.5-3.1-1-3.1-2.9v0c0-1.7 1.4-2.8 3.3-2.8 1.4 0 2.5.4 3.5 1.2l-1.1 1.6c-.8-.6-1.6-.9-2.4-.9s-1.2.4-1.2.8v0c0 .6.4.8 2 1.2 1.9.5 3 1.2 3 2.8v0c0 1.9-1.4 2.9-3.4 2.9-1.5.1-3-.4-4.1-1.4z" fill="#fff"/><clipPath id="a"><path d="m37.9 46.2v.1l0 0z"/></clipPath><clipPath id="b"><path d="m-773.9-2438.9h1044.5v2657.3h-1044.5z"/></clipPath><linearGradient id="c" gradientTransform="matrix(1 0 0 -1 0 -6140.8638)" gradientUnits="userSpaceOnUse" x1="18.5553" x2="68.629" y1="-6176.0547" y2="-6176.0547"><stop offset="0" stop-color="#f65c51"/><stop offset=".1464" stop-color="#d9615e"/><stop offset=".4642" stop-color="#906f7f"/><stop offset=".9262" stop-color="#1c84b2"/><stop offset="1" stop-color="#0988bb"/></linearGradient><g clip-path="url(#a)"><path clip-path="url(#b)" d="m23.9 32.3h27.9v27.9h-27.9z" fill="#e389b7"/></g><path d="m25.7 22c0-3.5-.4-4.3-.4-5 0-.8 3.1-1.1 4-1.1 1.1 0 1.2 1.4 1.4 2.3.7-1.3 1.8-2.7 3.9-2.7 1.7 0 2 1.2 2 1.9s-.4 3-1.1 3c-.5 0-1-.3-1.7-.3-1.4 0-2.4 1.1-2.8 1.8v11.3c0 .7-.6 1.1-2.1 1.1h-1c-1.5 0-2.1-.4-2.1-1.1z" fill="#404040"/><path d="m38 17.2c-.1-.2-.1-.4-.1-.5 0-1 2.9-.8 2.9-.8.9 0 1.9.2 2.1.7l2.8 10.9 2.7-10.9c.1-.5.8-.7 1.9-.7h.8c1 0 1.8.2 1.9.7l2.6 10.9 2.9-10.9c.1-.5.8-.7 1.9-.7h.1c1.5 0 2.2.3 2.2.9 0 .1 0 .3-.1.5l-4.2 16.4c-.1.5-1 .7-1.9.7h-1.5c-1.1 0-1.8-.2-1.9-.7l-2.6-9.9-2.4 9.9c-.1.5-1 .7-1.9.7h-1.7c-1.2 0-1.8-.2-1.9-.7z" fill="#404040"/><path d="m68.6 29.9c-.3-2.3-3.2-4.1-4.9-4.3.6.5 1.3.9 1.9 1.5 1 .9 1.4 2.1 1.1 3.5-.3 1.3-1.1 2.3-2.1 3.2-2.2 2.1-4.9 3.5-7.7 4.6-5.1 2.1-10.3 3.2-15.8 3.7-3.6.3-7.1.3-10.7-.4-2-.4-4-.9-5.6-2.1-1.7-1.2-2.3-2.7-1.7-4.5l-.7-2.7 0 0c-.8.6-2.2 1.8-3.1 3.5-1.1 2.1-.7 4.1 1.2 5.6 1.7 1.4 3.7 2 5.7 2.5 4.4 1 8.8 1 13.3.6 4.8-.4 9.5-1.3 14.1-2.9 3.8-1.2 7.5-2.8 10.7-5.1 1.4-1 2.6-2.1 3.5-3.5.6-1 1-2 .8-3.2z" fill="url(#c)"/></svg>