<?xml version="1.0" encoding="UTF-8" standalone="no"?>
<svg
   xmlns:dc="http://purl.org/dc/elements/1.1/"
   xmlns:cc="http://creativecommons.org/ns#"
   xmlns:rdf="http://www.w3.org/1999/02/22-rdf-syntax-ns#"
   xmlns:svg="http://www.w3.org/2000/svg"
   xmlns="http://www.w3.org/2000/svg"
   id="svg3827"
   version="1.1"
   viewBox="0 0 30.552601 30.336544"
   height="30.336544mm"
   width="30.552601mm">
  <defs
     id="defs3821">
    <linearGradient
       y2="-5096.3384"
       y1="-5096.3384"
       x2="164.0096"
       x1="146.49989"
       gradientUnits="userSpaceOnUse"
       gradientTransform="matrix(1.2824612,0,0,-1.2824612,-43.727848,-6322.9177)"
       id="a">
      <stop
         id="stop2"
         stop-color="#f65c51"
         offset="0" />
      <stop
         id="stop4"
         stop-color="#d9615e"
         offset=".1464" />
      <stop
         id="stop6"
         stop-color="#906f7f"
         offset=".4642" />
      <stop
         id="stop8"
         stop-color="#1c84b2"
         offset=".9262" />
      <stop
         id="stop10"
         stop-color="#0988bb"
         offset="1" />
    </linearGradient>
  </defs>
  <metadata
     id="metadata3824">
    <rdf:RDF>
      <cc:Work
         rdf:about="">
        <dc:format>image/svg+xml</dc:format>
        <dc:type
           rdf:resource="http://purl.org/dc/dcmitype/StillImage" />
        <dc:title></dc:title>
      </cc:Work>
    </rdf:RDF>
  </metadata>
  <g
     transform="translate(-140.17531,-200.45379)"
     id="layer1">
    <path
       id="path87"
       d="m 140.2,219.9 h 30.52791 v 10.89033 H 140.2 Z"
       style="fill:#007cc2;stroke-width:1.00091529" />
    <g
       transform="translate(-0.02469037,0.05378686)"
       id="g107"
       style="fill:#ffffff">
      <path
         id="path89"
         d="m 140.2,200.4 h 30.5 v 19.5 h -30.5 z" />
    </g>
    <path
       id="path109"
       d="m 147.35889,207.01642 c 0,-1.53896 -0.12844,-1.92367 -0.12844,-2.18018 0,-0.38486 1.4107,-0.51297 1.79541,-0.51297 0.51302,0 0.51302,0.64123 0.64122,1.02594 0.38486,-0.64122 0.76948,-1.15419 1.66721,-1.15419 0.76948,0 0.89773,0.51297 0.89773,0.89773 0,0.25641 -0.12845,1.28244 -0.51297,1.28244 -0.25641,0 -0.38486,-0.12844 -0.76947,-0.12844 -0.64123,0 -1.02599,0.51301 -1.2825,0.76947 v 5.12983 c 0,0.38486 -0.25641,0.51302 -0.89768,0.51302 h -0.38486 c -0.64122,0 -0.89773,-0.12845 -0.89773,-0.51302 v -5.12983 z"
       style="fill:#404040;stroke-width:1.28246117" />
    <path
       id="path111"
       d="m 152.87344,204.83624 c 0,-0.12845 0,-0.12845 0,-0.25641 0,-0.38486 1.28249,-0.38486 1.28249,-0.38486 0.38486,0 0.89773,0.12845 0.89773,0.25641 l 1.28245,4.87337 1.15419,-4.87337 c 0,-0.25641 0.38486,-0.38486 0.89773,-0.38486 h 0.38486 c 0.38486,0 0.76947,0.12845 0.89773,0.38486 l 1.15424,4.87337 1.28244,-4.87337 c 0,-0.25641 0.38486,-0.38486 0.89773,-0.38486 v 0 c 0.64123,0 1.02594,0.12845 1.02594,0.38486 v 0.25641 l -1.92367,7.31006 c 0,0.25641 -0.38486,0.38486 -0.89773,0.38486 h -0.76947 c -0.51297,0 -0.76948,-0.12845 -0.89774,-0.38486 l -1.15419,-4.48866 -1.02598,4.48866 c 0,0.25641 -0.38486,0.38486 -0.89773,0.38486 h -0.76948 c -0.51297,0 -0.76948,-0.12845 -0.89773,-0.38486 z"
       style="fill:#404040;stroke-width:1.28246117" />
    <path
       id="path113"
       d="m 166.59581,210.60729 c -0.12845,-1.02593 -1.41075,-1.79541 -2.18022,-1.92366 0.25641,0.25641 0.64127,0.38485 0.89773,0.64122 0.38486,0.38486 0.64122,0.89773 0.51302,1.53895 -0.12845,0.64122 -0.51302,1.02599 -0.89773,1.4107 -1.02599,0.89773 -2.18018,1.53895 -3.46267,2.05197 -2.30843,0.89768 -4.61686,1.4107 -7.05355,1.66716 -1.66716,0.12845 -3.20611,0.12845 -4.74507,-0.12845 -0.89773,-0.12845 -1.79546,-0.38486 -2.56493,-0.89773 -0.76948,-0.51302 -1.02599,-1.15424 -0.76948,-2.05197 l -0.38486,-1.15419 v 0 c -0.38486,0.25641 -1.02599,0.76948 -1.4107,1.53895 -0.51302,0.89773 -0.25641,1.79546 0.51297,2.56494 0.76948,0.64122 1.66721,0.89768 2.56494,1.15419 1.92366,0.38486 3.97564,0.38486 5.8993,0.25641 2.18018,-0.12844 4.23215,-0.64122 6.28407,-1.28249 1.66721,-0.51297 3.33442,-1.28244 4.87337,-2.30843 0.64122,-0.38486 1.15419,-0.89768 1.53895,-1.53895 0.25641,-0.64123 0.51297,-1.02594 0.38486,-1.53896 z"
       style="fill:url(#a);stroke-width:1.28246117" />
    <g
       id="Videos-2"
       style="font-weight:700;font-size:4.53847075px;font-family:'Source Sans Pro';text-transform:uppercase;text-anchor:middle;fill:#ffffff;stroke-width:0.17391445"
       aria-label="HEADLINES">
      <path
         id="path6411"
         style="stroke-width:1.54223251"
         d="m 141.60935,223.65881 h 0.85318 v 1.26094 h 1.25872 v -1.26094 h 0.85318 v 3.30857 h -0.85318 v -1.40276 h -1.25872 v 1.40276 h -0.85318 z" />
      <path
         id="path6413"
         style="stroke-width:1.54223251"
         d="m 145.4121,223.65881 h 2.30247 v 0.64487 h -1.4493 v 0.61607 h 1.36288 v 0.64487 h -1.36288 v 0.75789 h 1.49805 v 0.64487 h -2.35122 z" />
      <path
         id="path6415"
         style="stroke-width:1.54223251"
         d="m 150.52231,226.36461 h -1.33406 l -0.21053,0.60277 h -0.85761 l 1.22547,-3.30857 h 1.01717 l 1.22548,3.30857 h -0.85761 z m -1.12132,-0.61384 h 0.90636 l -0.45207,-1.31634 z" />
      <path
         id="path6417"
         style="stroke-width:1.54223251"
         d="m 152.87797,224.30368 v 2.01883 h 0.30581 q 0.52299,0 0.79778,-0.25928 0.27701,-0.25928 0.27701,-0.75346 0,-0.49196 -0.27479,-0.74902 -0.27479,-0.25707 -0.8,-0.25707 z m -0.85318,-0.64487 h 0.89972 q 0.75345,0 1.12132,0.10859 0.37008,0.10637 0.63379,0.36343 0.23268,0.22382 0.3457,0.51634 0.11302,0.29252 0.11302,0.6626 0,0.37451 -0.11302,0.66925 -0.11302,0.29252 -0.3457,0.51634 -0.26593,0.25706 -0.63823,0.36565 -0.37229,0.10637 -1.11688,0.10637 h -0.89972 z" />
      <path
         id="path6419"
         style="stroke-width:1.54223251"
         d="m 155.79207,223.65881 h 0.85318 v 2.6637 h 1.49805 v 0.64487 h -2.35123 z" />
      <path
         id="path6421"
         style="stroke-width:1.54223251"
         d="m 158.6818,223.65881 h 0.85318 v 3.30857 h -0.85318 z" />
      <path
         id="path6423"
         style="stroke-width:1.54223251"
         d="m 160.37487,223.65881 h 0.9529 l 1.20331,2.26924 v -2.26924 h 0.80886 v 3.30857 h -0.9529 l -1.20332,-2.26924 v 2.26924 h -0.80885 z" />
      <path
         id="path6425"
         style="stroke-width:1.54223251"
         d="m 164.17761,223.65881 h 2.30247 v 0.64487 h -1.44929 v 0.61607 h 1.36287 v 0.64487 h -1.36287 v 0.75789 h 1.49805 v 0.64487 h -2.35123 z" />
      <path
         id="path6427"
         style="stroke-width:1.54223251"
         d="m 169.58255,223.76297 v 0.70027 q -0.27257,-0.12188 -0.53185,-0.18393 -0.25928,-0.062 -0.48974,-0.062 -0.30582,0 -0.45208,0.0842 -0.14626,0.0842 -0.14626,0.26149 0,0.13297 0.0975,0.20831 0.0997,0.0731 0.359,0.12632 l 0.36343,0.0731 q 0.5518,0.1108 0.78448,0.33684 0.23269,0.22603 0.23269,0.64265 0,0.54736 -0.32576,0.81551 -0.32355,0.26592 -0.99058,0.26592 -0.31468,0 -0.63157,-0.0598 -0.3169,-0.0598 -0.63379,-0.17729 v -0.72021 q 0.31689,0.16842 0.61163,0.25484 0.29695,0.0842 0.57174,0.0842 0.27922,0 0.4277,-0.0931 0.14847,-0.0931 0.14847,-0.26593 0,-0.15512 -0.10194,-0.23933 -0.0997,-0.0842 -0.4011,-0.15069 l -0.33019,-0.0731 q -0.4964,-0.10637 -0.72687,-0.33906 -0.22825,-0.23268 -0.22825,-0.62714 0,-0.49418 0.31911,-0.7601 0.31911,-0.26593 0.91745,-0.26593 0.27257,0 0.56066,0.0421 0.28808,0.0399 0.59611,0.12188 z" />
    </g>
  </g>
</svg>
