<svg enable-background="new 0 0 87.2 87.2" viewBox="0 0 87.2 87.2" xmlns="http://www.w3.org/2000/svg" xmlns:xlink="http://www.w3.org/1999/xlink"><path d="m0 55.8h87.2v31.4h-87.2z" fill="#0071bc"/><path d="m0 0h87.2v55.8h-87.2z" fill="#fff"/><path d="m8.3 67.8h1.8v3.3h3.4v-3.3h1.8v8.4h-1.8v-3.4h-3.4v3.4h-1.8z" fill="#fff"/><path d="m17.4 67.8h6.3v1.6h-4.5v1.7h4v1.6h-4v1.8h4.6v1.6h-6.4z" fill="#fff"/><path d="m28.3 67.8h1.7l3.6 8.5h-1.9l-.8-1.9h-3.5l-.8 1.9h-1.9zm1.9 4.9-1.1-2.7-1.1 2.7z" fill="#fff"/><path d="m34.9 67.8h3.3c2.6 0 4.5 1.8 4.5 4.2v0c0 2.4-1.8 4.2-4.5 4.2h-3.3zm3.3 6.8c1.5 0 2.5-1 2.5-2.5v0c0-1.5-1-2.5-2.5-2.5h-1.4v5.1h1.4z" fill="#fff"/><path d="m44.3 67.8h1.8v6.7h4.2v1.7h-6z" fill="#fff"/><path d="m51.8 67.8h1.8v8.4h-1.8z" fill="#fff"/><path d="m55.7 67.8h1.7l3.9 5.2v-5.2h1.8v8.4h-1.6l-4.1-5.3v5.3h-1.8v-8.4z" fill="#fff"/><path d="m65.2 67.8h6.3v1.6h-4.5v1.7h4v1.6h-4v1.8h4.6v1.6h-6.4z" fill="#fff"/><path d="m72.7 75 1.1-1.3c.8.6 1.5 1 2.5 1 .8 0 1.2-.3 1.2-.8v0c0-.5-.3-.7-1.7-1.1-1.7-.4-2.8-.9-2.8-2.6v0c0-1.5 1.2-2.5 2.9-2.5 1.2 0 2.3.4 3.1 1.1l-1 1.4c-.7-.5-1.5-.8-2.2-.8s-1.1.3-1.1.7v0c0 .6.4.7 1.8 1.1 1.7.4 2.7 1.1 2.7 2.5v0c0 1.7-1.3 2.6-3.1 2.6-1.1.1-2.4-.4-3.4-1.3z" fill="#fff"/><clipPath><path d="m211.5 46.2.1.1h-.1z"/></clipPath><linearGradient id="a" gradientTransform="matrix(1 0 0 -1 0 -6140.8638)" gradientUnits="userSpaceOnUse" x1="18.6804" x2="68.7541" y1="-6176.0547" y2="-6176.0547"><stop offset="0" stop-color="#f65c51"/><stop offset=".1464" stop-color="#d9615e"/><stop offset=".4642" stop-color="#906f7f"/><stop offset=".9262" stop-color="#1c84b2"/><stop offset="1" stop-color="#0988bb"/></linearGradient><path d="m25.8 22c0-3.5-.4-4.3-.4-5 0-.8 3.1-1.1 4-1.1 1.1 0 1.2 1.4 1.4 2.3.7-1.3 1.8-2.7 3.9-2.7 1.7 0 2 1.2 2 1.9s-.4 3-1.1 3c-.5 0-1-.3-1.7-.3-1.4 0-2.4 1.1-2.8 1.8v11.3c0 .7-.6 1.1-2.1 1.1h-1c-1.5 0-2.1-.4-2.1-1.1z" fill="#404040"/><path d="m38.1 17.2c-.1-.2-.1-.4-.1-.5 0-1 2.9-.8 2.9-.8.9 0 1.9.2 2.1.7l2.8 10.9 2.7-10.9c.1-.5.8-.7 1.9-.7h.8c1 0 1.8.2 1.9.7l2.6 10.9 2.9-10.9c.1-.5.8-.7 1.9-.7h.1c1.5 0 2.2.3 2.2.9 0 .1 0 .3-.1.5l-4.2 16.4c-.1.5-1 .7-1.9.7h-1.7c-1.1 0-1.8-.2-1.9-.7l-2.6-9.9-2.4 9.9c-.1.5-1 .7-1.9.7h-1.7c-1.2 0-1.8-.2-1.9-.7z" fill="#404040"/><path d="m68.7 29.9c-.3-2.3-3.2-4.1-4.9-4.3.6.5 1.3.9 1.9 1.5 1 .9 1.4 2.1 1.1 3.5-.3 1.3-1.1 2.3-2.1 3.2-2.2 2.1-4.9 3.5-7.7 4.6-5.1 2.1-10.3 3.2-15.8 3.7-3.6.3-7.1.3-10.7-.4-2-.4-4-.9-5.6-2.1-1.7-1.2-2.3-2.7-1.7-4.5l-.7-2.7 0 0c-.8.6-2.2 1.8-3.1 3.5-1.1 2.1-.7 4.1 1.2 5.6 1.7 1.4 3.7 2 5.7 2.5 4.4 1 8.8 1 13.3.6 4.8-.4 9.5-1.3 14.1-2.9 3.8-1.2 7.5-2.8 10.7-5.1 1.4-1 2.6-2.1 3.5-3.5.6-1 1-2 .8-3.2z" fill="url(#a)"/></svg>