<?xml version="1.0" encoding="UTF-8" standalone="no"?>
<!-- Created with Inkscape (http://www.inkscape.org/) -->

<svg
   xmlns:dc="http://purl.org/dc/elements/1.1/"
   xmlns:cc="http://creativecommons.org/ns#"
   xmlns:rdf="http://www.w3.org/1999/02/22-rdf-syntax-ns#"
   xmlns:svg="http://www.w3.org/2000/svg"
   xmlns="http://www.w3.org/2000/svg"
   xmlns:sodipodi="http://sodipodi.sourceforge.net/DTD/sodipodi-0.dtd"
   xmlns:inkscape="http://www.inkscape.org/namespaces/inkscape"
   width="30.552601mm"
   height="30.336544mm"
   viewBox="0 0 30.552601 30.336544"
   version="1.1"
   id="svg3827"
   inkscape:version="0.92.1 r15371"
   sodipodi:docname="rw-apps-americas.svg">
  <defs
     id="defs3821">
    <linearGradient
       id="a"
       gradientTransform="matrix(1.2824612,0,0,-1.2824612,-43.727848,-6322.9177)"
       gradientUnits="userSpaceOnUse"
       x1="146.49989"
       x2="164.0096"
       y1="-5096.3384"
       y2="-5096.3384">
      <stop
         offset="0"
         stop-color="#f65c51"
         id="stop2" />
      <stop
         offset=".1464"
         stop-color="#d9615e"
         id="stop4" />
      <stop
         offset=".4642"
         stop-color="#906f7f"
         id="stop6" />
      <stop
         offset=".9262"
         stop-color="#1c84b2"
         id="stop8" />
      <stop
         offset="1"
         stop-color="#0988bb"
         id="stop10" />
    </linearGradient>
  </defs>
  <sodipodi:namedview
     id="base"
     pagecolor="#ffffff"
     bordercolor="#666666"
     borderopacity="1.0"
     inkscape:pageopacity="0.0"
     inkscape:pageshadow="2"
     inkscape:zoom="2.1649824"
     inkscape:cx="119.63217"
     inkscape:cy="10.303411"
     inkscape:document-units="mm"
     inkscape:current-layer="layer1"
     showgrid="false"
     showguides="true"
     inkscape:guide-bbox="true"
     inkscape:window-width="1303"
     inkscape:window-height="744"
     inkscape:window-x="57"
     inkscape:window-y="24"
     inkscape:window-maximized="1">
    <sodipodi:guide
       position="3.7000003e-07,3.9132297"
       orientation="1,0"
       id="guide4180"
       inkscape:locked="false" />
    <sodipodi:guide
       position="30.5526,-0.11971079"
       orientation="1,0"
       id="guide4182"
       inkscape:locked="false" />
  </sodipodi:namedview>
  <metadata
     id="metadata3824">
    <rdf:RDF>
      <cc:Work
         rdf:about="">
        <dc:format>image/svg+xml</dc:format>
        <dc:type
           rdf:resource="http://purl.org/dc/dcmitype/StillImage" />
        <dc:title></dc:title>
      </cc:Work>
    </rdf:RDF>
  </metadata>
  <g
     inkscape:label="Layer 1"
     inkscape:groupmode="layer"
     id="layer1"
     transform="translate(-140.17531,-200.45379)">
    <path
       inkscape:connector-curvature="0"
       style="fill:#961d1e;stroke-width:1.00091529"
       d="m 140.2,219.9 h 30.52791 v 10.89033 H 140.2 Z"
       id="path87" />
    <g
       style="fill:#ffffff"
       id="g107"
       transform="translate(-0.02469037,0.05378686)">
      <path
         inkscape:connector-curvature="0"
         d="m 140.2,200.4 h 30.5 v 19.5 h -30.5 z"
         id="path89" />
      <path
         inkscape:connector-curvature="0"
         d="m 144.3,223.9 h 0.6 l 1.4,3.2 h -0.7 l -0.3,-0.7 H 144 l -0.3,0.7 H 143 Z m 0.8,1.9 -0.4,-1 -0.4,1 z"
         id="path91" />
      <path
         inkscape:connector-curvature="0"
         d="m 146.8,223.9 h 0.8 l 0.8,1.3 0.8,-1.3 h 0.8 v 3.2 h -0.7 V 225 l -0.9,1.4 v 0 l -0.9,-1.3 v 2.1 h -0.7 z"
         id="path93" />
      <path
         inkscape:connector-curvature="0"
         d="m 150.8,223.9 h 2.4 v 0.6 h -1.7 v 0.6 h 1.5 v 0.6 h -1.5 v 0.7 h 1.7 v 0.6 h -2.4 z"
         id="path95" />
      <path
         inkscape:connector-curvature="0"
         d="m 153.8,223.9 h 1.5 c 0.4,0 0.7,0.1 0.9,0.3 0.2,0.2 0.3,0.4 0.3,0.7 v 0 c 0,0.5 -0.3,0.8 -0.7,1 l 0.8,1.1 h -0.8 l -0.7,-1 v 0 h -0.5 v 1 h -0.7 v -3.1 z m 1.4,1.6 c 0.3,0 0.5,-0.2 0.5,-0.5 v 0 c 0,-0.3 -0.2,-0.5 -0.5,-0.5 h -0.7 v 0.9 h 0.7 z"
         id="path97" />
      <path
         inkscape:connector-curvature="0"
         d="m 157.2,223.9 h 0.7 v 3.2 h -0.7 z"
         id="path99" />
      <path
         inkscape:connector-curvature="0"
         d="m 158.5,225.5 v 0 c 0,-0.9 0.7,-1.7 1.7,-1.7 0.6,0 1,0.2 1.3,0.5 l -0.4,0.5 c -0.2,-0.2 -0.5,-0.4 -0.8,-0.4 -0.5,0 -0.9,0.4 -0.9,1 v 0 c 0,0.5 0.4,1 0.9,1 0.4,0 0.6,-0.1 0.8,-0.4 l 0.4,0.5 c -0.3,0.3 -0.7,0.6 -1.3,0.6 -1,0.1 -1.7,-0.7 -1.7,-1.6 z"
         id="path101" />
      <path
         inkscape:connector-curvature="0"
         d="m 163.1,223.9 h 0.6 l 1.4,3.2 h -0.7 l -0.3,-0.7 h -1.3 l -0.3,0.7 h -0.7 z m 0.7,1.9 -0.4,-1 -0.4,1 z"
         id="path103" />
      <path
         inkscape:connector-curvature="0"
         d="m 165.3,226.6 0.4,-0.5 c 0.3,0.2 0.6,0.4 1,0.4 0.3,0 0.5,-0.1 0.5,-0.3 v 0 c 0,-0.2 -0.1,-0.3 -0.6,-0.4 -0.6,-0.2 -1.1,-0.3 -1.1,-1 v 0 c 0,-0.6 0.5,-1 1.1,-1 0.5,0 0.9,0.1 1.2,0.4 l -0.4,0.5 c -0.3,-0.2 -0.6,-0.3 -0.8,-0.3 -0.3,0 -0.4,0.1 -0.4,0.3 v 0 c 0,0.2 0.1,0.3 0.7,0.4 0.6,0.2 1,0.4 1,1 v 0 c 0,0.6 -0.5,1 -1.2,1 -0.5,0 -1,-0.1 -1.4,-0.5 z"
         id="path105" />
    </g>
    <path
       inkscape:connector-curvature="0"
       style="fill:#404040;stroke-width:1.28246117"
       d="m 147.35889,207.01642 c 0,-1.53896 -0.12844,-1.92367 -0.12844,-2.18018 0,-0.38486 1.4107,-0.51297 1.79541,-0.51297 0.51302,0 0.51302,0.64123 0.64122,1.02594 0.38486,-0.64122 0.76948,-1.15419 1.66721,-1.15419 0.76948,0 0.89773,0.51297 0.89773,0.89773 0,0.25641 -0.12845,1.28244 -0.51297,1.28244 -0.25641,0 -0.38486,-0.12844 -0.76947,-0.12844 -0.64123,0 -1.02599,0.51301 -1.2825,0.76947 v 5.12983 c 0,0.38486 -0.25641,0.51302 -0.89768,0.51302 h -0.38486 c -0.64122,0 -0.89773,-0.12845 -0.89773,-0.51302 v -5.12983 z"
       id="path109" />
    <path
       inkscape:connector-curvature="0"
       style="fill:#404040;stroke-width:1.28246117"
       d="m 152.87344,204.83624 c 0,-0.12845 0,-0.12845 0,-0.25641 0,-0.38486 1.28249,-0.38486 1.28249,-0.38486 0.38486,0 0.89773,0.12845 0.89773,0.25641 l 1.28245,4.87337 1.15419,-4.87337 c 0,-0.25641 0.38486,-0.38486 0.89773,-0.38486 h 0.38486 c 0.38486,0 0.76947,0.12845 0.89773,0.38486 l 1.15424,4.87337 1.28244,-4.87337 c 0,-0.25641 0.38486,-0.38486 0.89773,-0.38486 v 0 c 0.64123,0 1.02594,0.12845 1.02594,0.38486 v 0.25641 l -1.92367,7.31006 c 0,0.25641 -0.38486,0.38486 -0.89773,0.38486 h -0.76947 c -0.51297,0 -0.76948,-0.12845 -0.89774,-0.38486 l -1.15419,-4.48866 -1.02598,4.48866 c 0,0.25641 -0.38486,0.38486 -0.89773,0.38486 h -0.76948 c -0.51297,0 -0.76948,-0.12845 -0.89773,-0.38486 z"
       id="path111" />
    <path
       inkscape:connector-curvature="0"
       style="fill:url(#a);stroke-width:1.28246117"
       d="m 166.59581,210.60729 c -0.12845,-1.02593 -1.41075,-1.79541 -2.18022,-1.92366 0.25641,0.25641 0.64127,0.38485 0.89773,0.64122 0.38486,0.38486 0.64122,0.89773 0.51302,1.53895 -0.12845,0.64122 -0.51302,1.02599 -0.89773,1.4107 -1.02599,0.89773 -2.18018,1.53895 -3.46267,2.05197 -2.30843,0.89768 -4.61686,1.4107 -7.05355,1.66716 -1.66716,0.12845 -3.20611,0.12845 -4.74507,-0.12845 -0.89773,-0.12845 -1.79546,-0.38486 -2.56493,-0.89773 -0.76948,-0.51302 -1.02599,-1.15424 -0.76948,-2.05197 l -0.38486,-1.15419 v 0 c -0.38486,0.25641 -1.02599,0.76948 -1.4107,1.53895 -0.51302,0.89773 -0.25641,1.79546 0.51297,2.56494 0.76948,0.64122 1.66721,0.89768 2.56494,1.15419 1.92366,0.38486 3.97564,0.38486 5.8993,0.25641 2.18018,-0.12844 4.23215,-0.64122 6.28407,-1.28249 1.66721,-0.51297 3.33442,-1.28244 4.87337,-2.30843 0.64122,-0.38486 1.15419,-0.89768 1.53895,-1.53895 0.25641,-0.64123 0.51297,-1.02594 0.38486,-1.53896 z"
       id="path113" />
  </g>
</svg>
