<?xml version="1.0" encoding="UTF-8" standalone="no"?>
<!-- Created with Inkscape (http://www.inkscape.org/) -->

<svg
   xmlns:dc="http://purl.org/dc/elements/1.1/"
   xmlns:cc="http://creativecommons.org/ns#"
   xmlns:rdf="http://www.w3.org/1999/02/22-rdf-syntax-ns#"
   xmlns:svg="http://www.w3.org/2000/svg"
   xmlns="http://www.w3.org/2000/svg"
   xmlns:sodipodi="http://sodipodi.sourceforge.net/DTD/sodipodi-0.dtd"
   xmlns:inkscape="http://www.inkscape.org/namespaces/inkscape"
   width="30.552601mm"
   height="30.336544mm"
   viewBox="0 0 30.552601 30.336544"
   version="1.1"
   id="svg3827"
   inkscape:version="0.92.1 r15371"
   sodipodi:docname="rw-apps-crises.svg">
  <defs
     id="defs3821">
    <linearGradient
       id="a"
       gradientTransform="matrix(1.2824612,0,0,-1.2824612,-43.727848,-6322.9177)"
       gradientUnits="userSpaceOnUse"
       x1="146.49989"
       x2="164.0096"
       y1="-5096.3384"
       y2="-5096.3384">
      <stop
         offset="0"
         stop-color="#f65c51"
         id="stop2" />
      <stop
         offset=".1464"
         stop-color="#d9615e"
         id="stop4" />
      <stop
         offset=".4642"
         stop-color="#906f7f"
         id="stop6" />
      <stop
         offset=".9262"
         stop-color="#1c84b2"
         id="stop8" />
      <stop
         offset="1"
         stop-color="#0988bb"
         id="stop10" />
    </linearGradient>
  </defs>
  <sodipodi:namedview
     id="base"
     pagecolor="#ffffff"
     bordercolor="#666666"
     borderopacity="1.0"
     inkscape:pageopacity="0.0"
     inkscape:pageshadow="2"
     inkscape:zoom="2.1649824"
     inkscape:cx="119.63217"
     inkscape:cy="9.8509641"
     inkscape:document-units="mm"
     inkscape:current-layer="layer1"
     showgrid="false"
     showguides="true"
     inkscape:guide-bbox="true"
     inkscape:window-width="1303"
     inkscape:window-height="744"
     inkscape:window-x="57"
     inkscape:window-y="24"
     inkscape:window-maximized="1">
    <sodipodi:guide
       position="0,3.9132329"
       orientation="1,0"
       id="guide4180"
       inkscape:locked="false" />
    <sodipodi:guide
       position="30.5526,-0.11970765"
       orientation="1,0"
       id="guide4182"
       inkscape:locked="false" />
  </sodipodi:namedview>
  <metadata
     id="metadata3824">
    <rdf:RDF>
      <cc:Work
         rdf:about="">
        <dc:format>image/svg+xml</dc:format>
        <dc:type
           rdf:resource="http://purl.org/dc/dcmitype/StillImage" />
        <dc:title></dc:title>
      </cc:Work>
    </rdf:RDF>
  </metadata>
  <g
     inkscape:label="Layer 1"
     inkscape:groupmode="layer"
     id="layer1"
     transform="translate(-140.17531,-200.45379)">
    <path
       inkscape:connector-curvature="0"
       style="fill:#333333;stroke-width:1.00091529"
       d="m 140.2,219.9 h 30.52791 v 10.89033 H 140.2 Z"
       id="path87" />
    <g
       style="fill:#ffffff"
       id="g107"
       transform="translate(-0.02469037,0.05378686)">
      <path
         inkscape:connector-curvature="0"
         d="m 140.2,200.4 h 30.5 v 19.5 h -30.5 z"
         id="path89" />
    </g>
    <path
       inkscape:connector-curvature="0"
       style="fill:#404040;stroke-width:1.28246117"
       d="m 147.35889,207.01642 c 0,-1.53896 -0.12844,-1.92367 -0.12844,-2.18018 0,-0.38486 1.4107,-0.51297 1.79541,-0.51297 0.51302,0 0.51302,0.64123 0.64122,1.02594 0.38486,-0.64122 0.76948,-1.15419 1.66721,-1.15419 0.76948,0 0.89773,0.51297 0.89773,0.89773 0,0.25641 -0.12845,1.28244 -0.51297,1.28244 -0.25641,0 -0.38486,-0.12844 -0.76947,-0.12844 -0.64123,0 -1.02599,0.51301 -1.2825,0.76947 v 5.12983 c 0,0.38486 -0.25641,0.51302 -0.89768,0.51302 h -0.38486 c -0.64122,0 -0.89773,-0.12845 -0.89773,-0.51302 v -5.12983 z"
       id="path109" />
    <path
       inkscape:connector-curvature="0"
       style="fill:#404040;stroke-width:1.28246117"
       d="m 152.87344,204.83624 c 0,-0.12845 0,-0.12845 0,-0.25641 0,-0.38486 1.28249,-0.38486 1.28249,-0.38486 0.38486,0 0.89773,0.12845 0.89773,0.25641 l 1.28245,4.87337 1.15419,-4.87337 c 0,-0.25641 0.38486,-0.38486 0.89773,-0.38486 h 0.38486 c 0.38486,0 0.76947,0.12845 0.89773,0.38486 l 1.15424,4.87337 1.28244,-4.87337 c 0,-0.25641 0.38486,-0.38486 0.89773,-0.38486 v 0 c 0.64123,0 1.02594,0.12845 1.02594,0.38486 v 0.25641 l -1.92367,7.31006 c 0,0.25641 -0.38486,0.38486 -0.89773,0.38486 h -0.76947 c -0.51297,0 -0.76948,-0.12845 -0.89774,-0.38486 l -1.15419,-4.48866 -1.02598,4.48866 c 0,0.25641 -0.38486,0.38486 -0.89773,0.38486 h -0.76948 c -0.51297,0 -0.76948,-0.12845 -0.89773,-0.38486 z"
       id="path111" />
    <path
       inkscape:connector-curvature="0"
       style="fill:url(#a);stroke-width:1.28246117"
       d="m 166.59581,210.60729 c -0.12845,-1.02593 -1.41075,-1.79541 -2.18022,-1.92366 0.25641,0.25641 0.64127,0.38485 0.89773,0.64122 0.38486,0.38486 0.64122,0.89773 0.51302,1.53895 -0.12845,0.64122 -0.51302,1.02599 -0.89773,1.4107 -1.02599,0.89773 -2.18018,1.53895 -3.46267,2.05197 -2.30843,0.89768 -4.61686,1.4107 -7.05355,1.66716 -1.66716,0.12845 -3.20611,0.12845 -4.74507,-0.12845 -0.89773,-0.12845 -1.79546,-0.38486 -2.56493,-0.89773 -0.76948,-0.51302 -1.02599,-1.15424 -0.76948,-2.05197 l -0.38486,-1.15419 v 0 c -0.38486,0.25641 -1.02599,0.76948 -1.4107,1.53895 -0.51302,0.89773 -0.25641,1.79546 0.51297,2.56494 0.76948,0.64122 1.66721,0.89768 2.56494,1.15419 1.92366,0.38486 3.97564,0.38486 5.8993,0.25641 2.18018,-0.12844 4.23215,-0.64122 6.28407,-1.28249 1.66721,-0.51297 3.33442,-1.28244 4.87337,-2.30843 0.64122,-0.38486 1.15419,-0.89768 1.53895,-1.53895 0.25641,-0.64123 0.51297,-1.02594 0.38486,-1.53896 z"
       id="path113" />
    <g
       aria-label="CRISES"
       style="font-weight:700;font-size:6.15182829px;font-family:'Source Sans Pro';text-transform:uppercase;text-anchor:middle;fill:#ffffff;stroke-width:0.2357384"
       id="CRISES-2">
      <path
         d="m 147.26455,227.57621 q -0.3184,0.16521 -0.66384,0.24932 -0.34544,0.0841 -0.72092,0.0841 -1.12043,0 -1.77526,-0.6248 -0.65483,-0.6278 -0.65483,-1.70016 0,-1.07537 0.65483,-1.70017 0.65483,-0.6278 1.77526,-0.6278 0.37548,0 0.72092,0.0841 0.34544,0.0841 0.66384,0.24932 v 0.92818 q -0.32141,-0.21928 -0.6338,-0.32141 -0.3124,-0.10213 -0.65784,-0.10213 -0.61879,0 -0.97324,0.39651 -0.35445,0.3965 -0.35445,1.09339 0,0.69388 0.35445,1.09038 0.35445,0.39651 0.97324,0.39651 0.34544,0 0.65784,-0.10213 0.31239,-0.10213 0.6338,-0.32141 z"
         style="stroke-width:0.2357384"
         id="path4200"
         inkscape:connector-curvature="0" />
      <path
         d="m 149.86887,225.32635 q 0.36346,0 0.51966,-0.13517 0.1592,-0.13518 0.1592,-0.44457 0,-0.30639 -0.1592,-0.43856 -0.1562,-0.13217 -0.51966,-0.13217 h -0.48662 v 1.15047 z m -0.48662,0.79902 v 1.69716 h -1.15647 v -4.48471 h 1.76624 q 0.88613,0 1.29765,0.29738 0.41453,0.29738 0.41453,0.94019 0,0.44457 -0.21627,0.72993 -0.21327,0.28536 -0.64583,0.42054 0.23731,0.0541 0.42354,0.24631 0.18924,0.18924 0.38149,0.57673 l 0.6278,1.27363 h -1.23157 l -0.54669,-1.11442 q -0.16521,-0.33643 -0.33643,-0.45959 -0.16822,-0.12315 -0.45058,-0.12315 z"
         style="stroke-width:0.2357384"
         id="path4202"
         inkscape:connector-curvature="0" />
      <path
         d="m 152.9598,223.33782 h 1.15647 v 4.48471 h -1.15647 z"
         style="stroke-width:0.2357384"
         id="path4204"
         inkscape:connector-curvature="0" />
      <path
         d="m 158.37569,223.479 v 0.94921 q -0.36947,-0.16521 -0.72092,-0.24932 -0.35144,-0.0841 -0.66384,-0.0841 -0.41453,0 -0.61278,0.11415 -0.19825,0.11414 -0.19825,0.35445 0,0.18023 0.13217,0.28236 0.13517,0.0991 0.48661,0.17121 l 0.49263,0.0991 q 0.74795,0.15019 1.06335,0.45658 0.31541,0.30639 0.31541,0.87111 0,0.74194 -0.44157,1.10541 -0.43855,0.36046 -1.3427,0.36046 -0.42655,0 -0.85609,-0.0811 -0.42955,-0.0811 -0.8591,-0.2403 v -0.97625 q 0.42955,0.2283 0.82906,0.34544 0.40251,0.11415 0.77498,0.11415 0.37849,0 0.57974,-0.12616 0.20126,-0.12616 0.20126,-0.36046 0,-0.21027 -0.13818,-0.32441 -0.13517,-0.11415 -0.54369,-0.20426 l -0.44757,-0.0991 q -0.67286,-0.14418 -0.98525,-0.45958 -0.3094,-0.3154 -0.3094,-0.85009 0,-0.66985 0.43255,-1.03031 0.43255,-0.36046 1.24359,-0.36046 0.36947,0 0.75996,0.0571 0.3905,0.0541 0.80803,0.16521 z"
         style="stroke-width:0.2357384"
         id="path4206"
         inkscape:connector-curvature="0" />
      <path
         d="m 159.68836,223.33782 h 3.12097 v 0.87411 h -1.9645 v 0.83506 h 1.84735 v 0.87412 h -1.84735 v 1.0273 h 2.03059 v 0.87412 h -3.18706 z"
         style="stroke-width:0.2357384"
         id="path4208"
         inkscape:connector-curvature="0" />
      <path
         d="m 167.01468,223.479 v 0.94921 q -0.36947,-0.16521 -0.72091,-0.24932 -0.35145,-0.0841 -0.66385,-0.0841 -0.41453,0 -0.61278,0.11415 -0.19825,0.11414 -0.19825,0.35445 0,0.18023 0.13217,0.28236 0.13517,0.0991 0.48662,0.17121 l 0.49262,0.0991 q 0.74796,0.15019 1.06336,0.45658 0.3154,0.30639 0.3154,0.87111 0,0.74194 -0.44156,1.10541 -0.43856,0.36046 -1.34271,0.36046 -0.42654,0 -0.85609,-0.0811 -0.42955,-0.0811 -0.85909,-0.2403 v -0.97625 q 0.42954,0.2283 0.82905,0.34544 0.40251,0.11415 0.77499,0.11415 0.37848,0 0.57973,-0.12616 0.20126,-0.12616 0.20126,-0.36046 0,-0.21027 -0.13817,-0.32441 -0.13518,-0.11415 -0.5437,-0.20426 l -0.44757,-0.0991 q -0.67285,-0.14418 -0.98525,-0.45958 -0.30939,-0.3154 -0.30939,-0.85009 0,-0.66985 0.43255,-1.03031 0.43255,-0.36046 1.24358,-0.36046 0.36947,0 0.75997,0.0571 0.39049,0.0541 0.80802,0.16521 z"
         style="stroke-width:0.2357384"
         id="path4210"
         inkscape:connector-curvature="0" />
    </g>
  </g>
</svg>
