<svg enable-background="new 0 0 87.2 87.2" viewBox="0 0 87.2 87.2" xmlns="http://www.w3.org/2000/svg" xmlns:xlink="http://www.w3.org/1999/xlink"><clipPath><path d="m558.8 46.2v.1h-.1z"/></clipPath><linearGradient id="a" gradientTransform="matrix(1 0 0 -1 0 -6140.8638)" gradientUnits="userSpaceOnUse" x1="17.7194" x2="67.7931" y1="-6176.0547" y2="-6176.0547"><stop offset="0" stop-color="#f65c51"/><stop offset=".1464" stop-color="#d9615e"/><stop offset=".4642" stop-color="#906f7f"/><stop offset=".9262" stop-color="#1c84b2"/><stop offset="1" stop-color="#0988bb"/></linearGradient><path d="m0 55.8h87.2v31.4h-87.2z" fill="#3c3c3b"/><g fill="#fff"><path d="m0 0h87.2v55.8h-87.2z"/><path d="m19.3 71.6 0 0c0-2.7 2-4.9 4.9-4.9 1.8 0 2.8.6 3.7 1.4l-1.3 1.5c-.7-.7-1.5-1.1-2.4-1.1-1.6 0-2.7 1.3-2.7 2.9v0c0 1.6 1.1 2.9 2.7 2.9 1.1 0 1.7-.4 2.5-1.1l1.3 1.3c-1 1-2 1.7-3.8 1.7-2.9.2-4.9-1.9-4.9-4.6z"/><path d="m29.5 66.9h4.3c1.2 0 2.1.3 2.7.9.5.5.8 1.3.8 2.1v0c0 1.5-.8 2.5-2 2.9l2.3 3.3h-2.4l-2-3h0-1.6v3h-2.1zm4.2 4.5c1 0 1.6-.5 1.6-1.3v0c0-.9-.6-1.3-1.6-1.3h-2v2.7h2z"/><path d="m39.3 66.9h2.1v9.4h-2.1z"/><path d="m43 74.9 1.2-1.5c.8.7 1.7 1.1 2.8 1.1.8 0 1.3-.3 1.3-.9v0c0-.5-.3-.8-1.9-1.2-1.9-.5-3.1-1-3.1-2.9v0c0-1.7 1.4-2.8 3.3-2.8 1.4 0 2.5.4 3.5 1.2l-1.1 1.6c-.8-.6-1.6-.9-2.4-.9s-1.2.4-1.2.8v0c0 .6.4.8 2 1.2 1.9.5 3 1.2 3 2.8v0c0 1.9-1.4 2.9-3.4 2.9-1.4.1-2.8-.4-4-1.4z"/><path d="m52.2 66.9h7.1v1.8h-5v1.9h4.4v1.8h-4.4v2h5.1v1.8h-7.1v-9.3z"/><path d="m60.6 74.9 1.2-1.5c.8.7 1.7 1.1 2.8 1.1.8 0 1.4-.3 1.4-.9v0c0-.5-.3-.8-1.9-1.2-1.9-.5-3.1-1-3.1-2.9v0c0-1.7 1.4-2.8 3.3-2.8 1.4 0 2.5.4 3.5 1.2l-1.1 1.6c-.8-.6-1.6-.9-2.4-.9s-1.2.4-1.2.8v0c0 .6.4.8 2 1.2 1.9.5 3 1.2 3 2.8v0c0 1.9-1.4 2.9-3.4 2.9-1.6.1-3-.4-4.1-1.4z"/></g><path d="m24.8 22c0-3.5-.4-4.3-.4-5 0-.8 3.1-1.1 4-1.1 1.1 0 1.2 1.4 1.4 2.3.7-1.3 1.8-2.7 3.9-2.7 1.7 0 2 1.2 2 1.9s-.4 3-1.1 3c-.5 0-1-.3-1.7-.3-1.4 0-2.4 1.1-2.8 1.8v11.3c0 .7-.6 1.1-2.1 1.1h-1c-1.5 0-2.1-.4-2.1-1.1z" fill="#404040"/><path d="m37.2 17.2c-.1-.2-.1-.4-.1-.5 0-1 2.9-.8 2.9-.8.9 0 1.9.2 2.1.7l2.8 10.9 2.7-10.9c.1-.5.8-.7 1.9-.7h.8c1 0 1.8.2 1.9.7l2.6 10.9 2.9-10.9c.1-.5.8-.7 1.9-.7h.1c1.5 0 2.2.3 2.2.9 0 .1 0 .3-.1.5l-4.2 16.4c-.1.5-1 .7-1.9.7h-1.7c-1.1 0-1.8-.2-1.9-.7l-2.6-9.9-2.4 9.9c-.1.5-1 .7-1.9.7h-1.7c-1.2 0-1.8-.2-1.9-.7z" fill="#404040"/><path d="m67.8 29.9c-.3-2.3-3.2-4.1-4.9-4.3.6.5 1.3.9 1.9 1.5 1 .9 1.4 2.1 1.1 3.5-.3 1.3-1.1 2.3-2.1 3.2-2.2 2.1-4.9 3.5-7.7 4.6-5.1 2.1-10.3 3.2-15.8 3.7-3.6.3-7.1.3-10.7-.4-2-.4-4-.9-5.6-2.1-1.7-1.2-2.3-2.7-1.7-4.5l-.7-2.7 0 0c-.8.6-2.2 1.8-3.1 3.5-1.1 2.1-.7 4.1 1.2 5.6 1.7 1.4 3.7 2 5.7 2.5 4.4 1 8.8 1 13.3.6 4.8-.4 9.5-1.3 14.1-2.9 3.8-1.2 7.5-2.8 10.7-5.1 1.4-1 2.6-2.1 3.5-3.5.6-1 .9-2 .8-3.2z" fill="url(#a)"/></svg>